<svg id="visual" viewBox="0 0 900 600" width="900" height="600" xmlns="http://www.w3.org/2000/svg"
    xmlns:xlink="http://www.w3.org/1999/xlink" version="1.1">
    <g>
        <g transform="translate(888 217)">
            <path
                d="M65.1 -63.2C84.3 -45.9 99.7 -22.9 98.4 -1.3C97 20.3 79 40.6 59.8 51.5C40.6 62.4 20.3 63.9 -0.3 64.2C-20.9 64.5 -41.8 63.6 -59.5 52.7C-77.2 41.8 -91.6 20.9 -89.7 1.9C-87.7 -17 -69.4 -34.1 -51.7 -51.3C-34.1 -68.6 -17 -86.1 3 -89C22.9 -92 45.9 -80.4 65.1 -63.2Z"
                fill="#C62368"></path>
        </g>
        <g transform="translate(413 314)">
            <path
                d="M18.7 -18.8C22.8 -14.7 23.5 -7.3 23.5 -0.1C23.4 7.2 22.6 14.5 18.5 19.8C14.5 25.1 7.2 28.5 0 28.5C-7.2 28.5 -14.5 25.1 -18.1 19.8C-21.6 14.5 -21.6 7.2 -20.1 1.5C-18.6 -4.3 -15.7 -8.5 -12.1 -12.6C-8.5 -16.7 -4.3 -20.6 1.5 -22.1C7.3 -23.7 14.7 -22.9 18.7 -18.8Z"
                fill="#C62368"></path>
        </g>
        <g transform="translate(28 279)">
            <path
                d="M10.9 -11.7C13.1 -8.7 13.2 -4.3 12.5 -0.8C11.7 2.8 10 5.6 7.8 7.7C5.6 9.7 2.8 11.1 -0.5 11.6C-3.8 12.2 -7.6 11.8 -10.1 9.7C-12.5 7.6 -13.5 3.8 -13.7 -0.2C-13.9 -4.2 -13.2 -8.4 -10.8 -11.4C-8.4 -14.5 -4.2 -16.3 0.1 -16.4C4.3 -16.5 8.7 -14.7 10.9 -11.7Z"
                fill="#C62368"></path>
        </g>
        <g transform="translate(615 163)">
            <path
                d="M33.8 -39.6C41.6 -25.9 44.3 -13 45.7 1.4C47.2 15.8 47.3 31.7 39.5 39.8C31.7 48 15.8 48.4 -0.9 49.3C-17.6 50.2 -35.3 51.6 -47.8 43.4C-60.3 35.3 -67.6 17.6 -68.9 -1.3C-70.1 -20.1 -65.3 -40.3 -52.8 -54C-40.3 -67.7 -20.1 -74.9 -3.6 -71.3C13 -67.8 25.9 -53.3 33.8 -39.6Z"
                fill="#C62368"></path>
        </g>
        <g transform="translate(824 543)">
            <path
                d="M31.4 -33.1C37.7 -25.2 37.6 -12.6 35.7 -1.8C33.9 9 30.4 18 24.2 25.7C18 33.5 9 40 0.4 39.6C-8.2 39.3 -16.5 32 -26.4 24.2C-36.4 16.5 -48.1 8.2 -49.5 -1.3C-50.8 -10.9 -41.8 -21.8 -31.8 -29.7C-21.8 -37.5 -10.9 -42.4 0.8 -43.2C12.6 -44.1 25.2 -40.9 31.4 -33.1Z"
                fill="#C62368"></path>
        </g>
        <g transform="translate(371 55)">
            <path
                d="M7.8 -8.5C9.3 -6.3 9.1 -3.1 9.1 0C9 3.1 9.1 6.2 7.6 8.6C6.2 11 3.1 12.8 0 12.8C-3 12.8 -6 10.9 -7.9 8.5C-9.7 6 -10.3 3 -10.2 0.1C-10.1 -2.9 -9.4 -5.8 -7.6 -8C-5.8 -10.2 -2.9 -11.6 0.1 -11.8C3.1 -11.9 6.3 -10.7 7.8 -8.5Z"
                fill="#C62368"></path>
        </g>
        <g transform="translate(157 555)">
            <path
                d="M42.9 -42.8C54.4 -31.3 61.8 -15.7 60.3 -1.5C58.9 12.8 48.6 25.5 37 32.3C25.5 39 12.8 39.7 0.9 38.8C-11 37.9 -21.9 35.4 -33.3 28.7C-44.7 21.9 -56.5 11 -59.1 -2.6C-61.8 -16.2 -55.2 -32.4 -43.8 -43.8C-32.4 -55.3 -16.2 -61.9 -0.3 -61.7C15.7 -61.4 31.3 -54.2 42.9 -42.8Z"
                fill="#C62368"></path>
        </g>
    </g>
</svg>
