<svg id="visual" viewBox="0 0 900 600" width="900" height="600" xmlns="http://www.w3.org/2000/svg" xmlns:xlink="http://www.w3.org/1999/xlink" version="1.1"><g><g transform="translate(731 437)"><path d="M25.8 -23.6C31.9 -13 34.2 -2.3 32.9 9.2C31.6 20.6 26.7 33 16.2 40.8C5.7 48.6 -10.5 52 -24 46.7C-37.5 41.4 -48.3 27.4 -50.4 13C-52.5 -1.4 -45.9 -16.4 -36.1 -27.8C-26.2 -39.3 -13.1 -47.3 -1.6 -46C9.9 -44.7 19.8 -34.2 25.8 -23.6Z" fill="#C62368"></path></g><g transform="translate(837 143)"><path d="M39.8 -29.6C48.3 -21.1 49.7 -4.7 45.2 8.4C40.7 21.4 30.2 31.1 17.5 37.8C4.9 44.4 -10 48 -19 42.4C-28 36.9 -31.2 22.4 -31.7 10C-32.3 -2.3 -30.3 -12.4 -24.6 -20.3C-18.9 -28.2 -9.4 -33.9 3.1 -36.3C15.6 -38.8 31.3 -38.1 39.8 -29.6Z" fill="#C62368"></path></g><g transform="translate(363 273)"><path d="M23.7 -21.7C28.6 -12.6 29.3 -2.9 28.5 8.8C27.6 20.6 25.4 34.4 17.2 40C8.9 45.7 -5.4 43.2 -15.4 36.6C-25.4 30 -31.1 19.2 -32.9 8.4C-34.7 -2.5 -32.5 -13.4 -26.4 -22.7C-20.3 -32 -10.1 -39.8 -0.4 -39.5C9.3 -39.1 18.7 -30.7 23.7 -21.7Z" fill="#C62368"></path></g><g transform="translate(95 190)"><path d="M30.3 -26.5C36.9 -15.9 38.1 -3.5 35.6 8.3C33.1 20.1 26.8 31.3 17 36.5C7.2 41.7 -6.1 41 -18.2 35.9C-30.2 30.8 -41 21.3 -43 10.5C-44.9 -0.4 -38.1 -12.6 -29.4 -23.7C-20.8 -34.7 -10.4 -44.5 0.7 -45.1C11.9 -45.7 23.8 -37 30.3 -26.5Z" fill="#C62368"></path></g><g transform="translate(449 510)"><path d="M32 -24.7C39.6 -16 42.6 -2.8 38.9 7.1C35.2 17 24.9 23.5 14.7 27.2C4.5 30.8 -5.5 31.5 -13.2 27.7C-20.9 23.9 -26.2 15.5 -30.5 4.7C-34.7 -6.1 -37.9 -19.4 -32.6 -27.5C-27.3 -35.7 -13.7 -38.6 -0.7 -38C12.2 -37.5 24.4 -33.3 32 -24.7Z" fill="#C62368"></path></g><g transform="translate(68 518)"><path d="M25.5 -20.5C33 -10.9 38.9 -0.4 36.7 8C34.5 16.3 24 22.3 14.3 25.3C4.6 28.3 -4.5 28.2 -12.2 24.7C-20 21.3 -26.4 14.4 -29.1 5.8C-31.7 -2.9 -30.7 -13.2 -25.2 -22.3C-19.7 -31.4 -9.9 -39.3 -0.4 -38.9C9 -38.6 18 -30.1 25.5 -20.5Z" fill="#C62368"></path></g></g></svg>