<svg xmlns="http://www.w3.org/2000/svg" version="1.1" xmlns:xlink="http://www.w3.org/1999/xlink"
    xmlns:svgjs="http://svgjs.dev/svgjs" viewBox="0 0 800 800">
    <defs>
        <symbol id="bbburst-shape-1" viewBox="0 0 194 167">
            <path d="m97 0 96.129 166.5H.871L97 0Z"></path>
        </symbol>
        <symbol id="bbburst-shape-3" viewBox="0 0 131 127">
            <path d="m66 0 66 63.5L66 127 0 63.5 66 0Z"></path>
        </symbol>
        <symbol id="bbburst-shape-5" viewBox="0 0 145 145">
            <circle cx="72.5" cy="72.5" r="72.5"></circle>
        </symbol>
        <symbol id="bbburst-shape-10" viewBox="0 0 145 145">
            <circle cx="72.5" cy="72.5" r="61.5" fill="none" stroke-width="22"></circle>
        </symbol>
        <symbol id="bbburst-shape-11" viewBox="0 0 194 167">
            <path d="M10.398 161 97 11l86.603 150H10.397Z" stroke-width="11"></path>
        </symbol>
        <symbol id="bbburst-shape-13" viewBox="0 0 159 159">
            <path stroke-width="22" d="M11 11h137v137H11z"></path>
        </symbol>
    </defs>
    <use xlink:href="#bbburst-shape-10" width="6.543530032293716" opacity="0.9440015293673774"
        transform="matrix(0.963694097294265,0.2670087767100394,-0.2670087767100394,0.963694097294265,848.6586422709249,403.0789554772582)"
        fill="none" stroke="hsl(206, 75%, 49%)"></use>
    <use xlink:href="#bbburst-shape-13" width="19.860178528760983" opacity="0.7098069466742349"
        transform="matrix(0.9971583165926774,0.07533453159114885,-0.07533453159114885,0.9971583165926774,705.2105941775479,133.96393192126106)"
        fill="none" stroke="hsl(206, 75%, 49%)"></use>
    <use xlink:href="#bbburst-shape-10" width="18.17227316700736" opacity="0.6111331534307559"
        transform="matrix(0.7471401839507765,0.6646664919536713,-0.6646664919536713,0.7471401839507765,671.0993480942,468.83654448953416)"
        fill="none" stroke="hsl(206, 75%, 49%)"></use>
    <use xlink:href="#bbburst-shape-5" width="8.568860955823183" opacity="0.9261135787880967"
        transform="matrix(0.9214081545126058,0.3885962079043925,-0.3885962079043925,0.9214081545126058,879.2441076444225,414.29208389611955)"
        fill="hsl(162, 100%, 58%)"></use>
    <use xlink:href="#bbburst-shape-3" width="6.9145845358412945" opacity="0.9892942592598135"
        transform="matrix(0.9788016960397352,0.2048102532339089,-0.2048102532339089,0.9788016960397352,870.8932078383823,400.2470296682406)"
        fill="hsl(206, 75%, 49%)"></use>
    <use xlink:href="#bbburst-shape-5" width="8.44588827233151" opacity="0.9738106634767907"
        transform="matrix(0.9997443910605127,0.022608682912648094,-0.022608682912648094,0.9997443910605127,780.283731289204,390.8539554040898)"
        fill="hsl(162, 100%, 58%)"></use>
    <use xlink:href="#bbburst-shape-13" width="15.4077342393115" opacity="0.6941910062565013"
        transform="matrix(0.9713573077404346,0.23762361140941923,-0.23762361140941923,0.9713573077404346,865.9162958796373,104.58479115577825)"
        fill="none" stroke="hsl(162, 100%, 58%)"></use>
    <use xlink:href="#bbburst-shape-3" width="14.747941691203877" opacity="0.8738749109526505"
        transform="matrix(0.7352024534167806,0.6778475879502314,-0.6778475879502314,0.7352024534167806,993.3154774386801,397.57974407800265)"
        fill="hsl(162, 100%, 58%)"></use>
    <use xlink:href="#bbburst-shape-11" width="11.270287472219975" opacity="0.9054180359551122"
        transform="matrix(0.984625151679765,-0.17468059617370113,0.17468059617370113,0.984625151679765,640.8927468248588,362.87142614249717)"
        fill="none" stroke="hsl(162, 100%, 58%)"></use>
    <use xlink:href="#bbburst-shape-10" width="27.32733762038508" opacity="0.5338612146265673"
        transform="matrix(0.9931725806977236,0.11665429674994283,-0.11665429674994283,0.9931725806977236,379.82684213040596,292.3406859493108)"
        fill="none" stroke="hsl(162, 100%, 58%)"></use>
    <use xlink:href="#bbburst-shape-13" width="46.01835823694806" opacity="0.3793465262842648"
        transform="matrix(0.9014301841510147,0.4329245004633806,-0.4329245004633806,0.9014301841510147,336.71484096162516,351.3175585898161)"
        fill="none" stroke="hsl(162, 100%, 58%)"></use>
    <use xlink:href="#bbburst-shape-11" width="13.42663079221158" opacity="0.8433949256883071"
        transform="matrix(0.7231477282397423,-0.6906933930056808,0.6906933930056808,0.7231477282397423,363.07049152025013,498.2370938895743)"
        fill="none" stroke="hsl(206, 75%, 49%)"></use>
    <use xlink:href="#bbburst-shape-13" width="7.4993979433404725" opacity="0.8886425465596742"
        transform="matrix(0.9842621594341199,-0.1767144632057127,0.1767144632057127,0.9842621594341199,616.4953039459328,384.78766109686126)"
        fill="none" stroke="hsl(162, 100%, 58%)"></use>
    <use xlink:href="#bbburst-shape-11" width="21.243305120419667" opacity="0.6113640157015579"
        transform="matrix(0.734704374460428,0.6783874130234959,-0.6783874130234959,0.734704374460428,684.586492971348,413.3716292783739)"
        fill="none" stroke="hsl(206, 75%, 49%)"></use>
    <use xlink:href="#bbburst-shape-13" width="32.569713368805495" opacity="0.23319344917495555"
        transform="matrix(0.9904186597791231,-0.13809735102935725,0.13809735102935725,0.9904186597791231,628.1598394550764,-354.11432239396044)"
        fill="none" stroke="hsl(162, 100%, 58%)"></use>
    <use xlink:href="#bbburst-shape-1" width="16.217026559488176" opacity="0.7408635594052606"
        transform="matrix(0.7867426831497154,-0.6172810952154508,0.6172810952154508,0.7867426831497154,476.99859029332845,240.74403325503482)"
        fill="hsl(162, 100%, 58%)"></use>
    <use xlink:href="#bbburst-shape-5" width="9.235548923653239" opacity="0.9079335595642097"
        transform="matrix(0.9563510287283712,-0.29222031046829394,0.29222031046829394,0.9563510287283712,587.4343103311909,406.6601216890727)"
        fill="hsl(206, 75%, 49%)"></use>
    <use xlink:href="#bbburst-shape-10" width="19.63101736313259" opacity="0.7214072414705734"
        transform="matrix(0.7530826976168028,0.6579258701025512,-0.6579258701025512,0.7530826976168028,900.4639549012367,261.0271258273245)"
        fill="none" stroke="hsl(206, 75%, 49%)"></use>
    <use xlink:href="#bbburst-shape-11" width="17.899246702384797" opacity="0.7928400136244158"
        transform="matrix(0.8347629131217115,0.5506095521116157,-0.5506095521116157,0.8347629131217115,828.9062368169186,365.78240887289155)"
        fill="none" stroke="hsl(162, 100%, 58%)"></use>
    <use xlink:href="#bbburst-shape-1" width="12.311325160883708" opacity="0.6931635942330849"
        transform="matrix(0.9848979810707477,0.17313568922312123,-0.17313568922312123,0.9848979810707477,557.3657499135697,380.0744758081427)"
        fill="hsl(162, 100%, 58%)"></use>
    <use xlink:href="#bbburst-shape-11" width="16.18895262536917" opacity="0.756831795486934"
        transform="matrix(0.7359854045561012,0.6769974034517356,-0.6769974034517356,0.7359854045561012,823.9718416816534,467.6534324340875)"
        fill="none" stroke="hsl(206, 75%, 49%)"></use>
    <use xlink:href="#bbburst-shape-10" width="17.662584757721778" opacity="0.7815652142466485"
        transform="matrix(0.9249368907659038,-0.3801207020149027,0.3801207020149027,0.9249368907659038,570.7885356580997,226.1300026606856)"
        fill="none" stroke="hsl(162, 100%, 58%)"></use>
    <use xlink:href="#bbburst-shape-11" width="48.14166953946937" opacity="0.09381746328459906"
        transform="matrix(0.9260836866678013,0.37731817513575144,-0.37731817513575144,0.9260836866678013,392.200250194423,-310.26341038682057)"
        fill="none" stroke="hsl(162, 100%, 58%)"></use>
    <use xlink:href="#bbburst-shape-5" width="28.35755007179776" opacity="0.5419750534540144"
        transform="matrix(0.9656003157028115,-0.2600308257007825,0.2600308257007825,0.9656003157028115,506.45524608966815,-5.479511877414211)"
        fill="hsl(162, 100%, 58%)"></use>
    <use xlink:href="#bbburst-shape-3" width="20.284927554270965" opacity="0.7642561786448387"
        transform="matrix(0.9862251581236315,-0.16540839605055713,0.16540839605055713,0.9862251581236315,575.5755366730284,223.85033745743874)"
        fill="hsl(162, 100%, 58%)"></use>
    <use xlink:href="#bbburst-shape-10" width="45.61359851897092" opacity="0.4475582361850684"
        transform="matrix(0.9955922648245203,-0.09378721779422954,0.09378721779422954,0.9955922648245203,491.757340781111,-89.73466759775823)"
        fill="none" stroke="hsl(162, 100%, 58%)"></use>
    <use xlink:href="#bbburst-shape-11" width="27.36075682672882" opacity="0.5777702341119731"
        transform="matrix(0.979717870357905,-0.2003818716884619,0.2003818716884619,0.979717870357905,676.5341579757262,-10.665325809644457)"
        fill="none" stroke="hsl(206, 75%, 49%)"></use>
    <use xlink:href="#bbburst-shape-5" width="33.80054499535164" opacity="0.23065206640334546"
        transform="matrix(0.7894626249882556,-0.6137986345265464,0.6137986345265464,0.7894626249882556,-218.30530375658495,371.53767281861457)"
        fill="hsl(162, 100%, 58%)"></use>
    <use xlink:href="#bbburst-shape-3" width="7.281335915297844" opacity="0.9321878931487754"
        transform="matrix(0.8219647397762841,0.5695383802383343,-0.5695383802383343,0.8219647397762841,982.2778636479313,416.301018312862)"
        fill="hsl(162, 100%, 58%)"></use>
    <use xlink:href="#bbburst-shape-13" width="13.387512986916674" opacity="0.8496964042405599"
        transform="matrix(0.9997426297092795,0.02268643519758813,-0.02268643519758813,0.9997426297092795,678.8845702901461,314.28067154157276)"
        fill="none" stroke="hsl(206, 75%, 49%)"></use>
    <use xlink:href="#bbburst-shape-11" width="64.70672659066317" opacity="0.17809439547463224"
        transform="matrix(0.8727385298854031,-0.4881879335393955,0.4881879335393955,0.8727385298854031,-15.139471986043475,-104.98073172779272)"
        fill="none" stroke="hsl(162, 100%, 58%)"></use>
    <use xlink:href="#bbburst-shape-10" width="14.212164236471919" opacity="0.727368235320481"
        transform="matrix(0.9264360127478489,0.3764522735804202,-0.3764522735804202,0.9264360127478489,672.305208302767,404.13757436944576)"
        fill="none" stroke="hsl(162, 100%, 58%)"></use>
    <use xlink:href="#bbburst-shape-3" width="25.462383680626232" opacity="0.5975303575814832"
        transform="matrix(0.9990497630740438,0.04358406706236643,-0.04358406706236643,0.9990497630740438,616.2097576341604,44.17458202322746)"
        fill="hsl(162, 100%, 58%)"></use>
    <use xlink:href="#bbburst-shape-10" width="11.70134294061207" opacity="0.8153166817245772"
        transform="matrix(0.9349946559108075,0.35466180146476245,-0.35466180146476245,0.9349946559108075,752.5719368104826,406.1161225371974)"
        fill="none" stroke="hsl(162, 100%, 58%)"></use>
    <use xlink:href="#bbburst-shape-10" width="56.6022036634569" opacity="0.2510421898988291"
        transform="matrix(0.8516693570993841,0.5240794845993514,-0.5240794845993514,0.8516693570993841,762.0004267536556,-270.3234882268133)"
        fill="none" stroke="hsl(162, 100%, 58%)"></use>
    <use xlink:href="#bbburst-shape-11" width="9.721844571673886" opacity="0.9305891601142187"
        transform="matrix(0.9159573448504021,0.4012756439339441,-0.4012756439339441,0.9159573448504021,897.4115440027603,394.50346068507775)"
        fill="none" stroke="hsl(206, 75%, 49%)"></use>
    <use xlink:href="#bbburst-shape-3" width="9.701124017142925" opacity="0.9054177981561922"
        transform="matrix(0.9442082169372108,0.3293491203392732,-0.3293491203392732,0.9442082169372108,862.7898860418055,351.3757676820356)"
        fill="hsl(206, 75%, 49%)"></use>
    <use xlink:href="#bbburst-shape-1" width="14.509304965381892" opacity="0.8428632961237692"
        transform="matrix(0.8546715216337207,-0.5191691343948525,0.5191691343948525,0.8546715216337207,477.8283115630061,348.0711149787806)"
        fill="hsl(162, 100%, 58%)"></use>
    <use xlink:href="#bbburst-shape-3" width="21.254432846803287" opacity="0.7595927827059618"
        transform="matrix(0.8823646707241345,-0.47056624173211753,0.47056624173211753,0.8823646707241345,492.1331359805557,238.42651006906306)"
        fill="hsl(162, 100%, 58%)"></use>
    <use xlink:href="#bbburst-shape-13" width="12.41561523432608" opacity="0.8941645025286359"
        transform="matrix(0.8207510527301177,0.5712860136940197,-0.5712860136940197,0.8207510527301177,980.0106615020111,371.6293780072606)"
        fill="none" stroke="hsl(162, 100%, 58%)"></use>
    <use xlink:href="#bbburst-shape-13" width="28.585261503958854" opacity="0.5538664434005529"
        transform="matrix(0.9570197782359712,-0.2900226612959281,0.2900226612959281,0.9570197782359712,574.2589989054015,-14.333303888650846)"
        fill="none" stroke="hsl(206, 75%, 49%)"></use>
    <use xlink:href="#bbburst-shape-3" width="20.899084734446593" opacity="0.6708912550182294"
        transform="matrix(0.999078986136568,-0.04290896713190975,0.04290896713190975,0.999078986136568,567.3392868048966,143.33858188299604)"
        fill="hsl(162, 100%, 58%)"></use>
    <use xlink:href="#bbburst-shape-3" width="32.46384270768098" opacity="0.6189272618462769"
        transform="matrix(0.9999147342692445,-0.01305849115580213,0.01305849115580213,0.9999147342692445,456.7094501458933,195.99944821663968)"
        fill="hsl(206, 75%, 49%)"></use>
    <use xlink:href="#bbburst-shape-13" width="35.20773429072616" opacity="0.5987780188809302"
        transform="matrix(0.9817716789135447,-0.1900641220306445,0.1900641220306445,0.9817716789135447,458.6087988696054,95.30544929019482)"
        fill="none" stroke="hsl(162, 100%, 58%)"></use>
    <use xlink:href="#bbburst-shape-11" width="16.339228590005234" opacity="0.8400509419114099"
        transform="matrix(0.9548480846185409,0.29709448884202455,-0.29709448884202455,0.9548480846185409,827.0851567681055,279.3250047900212)"
        fill="none" stroke="hsl(206, 75%, 49%)"></use>
    <use xlink:href="#bbburst-shape-3" width="31.39946134395137" opacity="0.6479379942849637"
        transform="matrix(0.9991602150556439,-0.04097395087076003,0.04097395087076003,0.9991602150556439,507.23476545889696,164.23260502925723)"
        fill="hsl(206, 75%, 49%)"></use>
    <use xlink:href="#bbburst-shape-11" width="13.254008249500894" opacity="0.812155692964603"
        transform="matrix(0.8731617633513827,-0.48743054379173234,0.48743054379173234,0.8731617633513827,585.8678354829351,266.44278945690394)"
        fill="none" stroke="hsl(162, 100%, 58%)"></use>
    <use xlink:href="#bbburst-shape-3" width="44.151629481354696" opacity="0.5140145765574281"
        transform="matrix(0.9734516591647102,-0.22889269815674085,0.22889269815674085,0.9734516591647102,409.76889061930115,16.409500450940243)"
        fill="hsl(206, 75%, 49%)"></use>
    <use xlink:href="#bbburst-shape-13" width="39.111609311331584" opacity="0.475329859845658"
        transform="matrix(0.7840317686167401,0.6207206987041004,-0.6207206987041004,0.7840317686167401,895.2821680061732,-32.03659005925118)"
        fill="none" stroke="hsl(206, 75%, 49%)"></use>
    <use xlink:href="#bbburst-shape-5" width="52.61399835649042" opacity="0.39774137043740354"
        transform="matrix(0.7080436692716275,0.7061686501143832,-0.7061686501143832,0.7080436692716275,553.9536144189368,177.68958859839745)"
        fill="hsl(206, 75%, 49%)"></use>
    <use xlink:href="#bbburst-shape-13" width="13.90761523232706" opacity="0.6551318449828742"
        transform="matrix(0.7535682191644163,0.6573697126164014,-0.6573697126164014,0.7535682191644163,714.148975951926,463.9776345216432)"
        fill="none" stroke="hsl(162, 100%, 58%)"></use>
    <use xlink:href="#bbburst-shape-13" width="10.43411471821906" opacity="0.8782590945861412"
        transform="matrix(0.8903627388343702,0.4552517910951686,-0.4552517910951686,0.8903627388343702,885.7719112661969,361.38651140259327)"
        fill="none" stroke="hsl(162, 100%, 58%)"></use>
    <use xlink:href="#bbburst-shape-1" width="16.381269306943484" opacity="0.8099151783096279"
        transform="matrix(0.8030890252516268,-0.5958590584361304,0.5958590584361304,0.8030890252516268,404.8266776344556,367.2451955824292)"
        fill="hsl(206, 75%, 49%)"></use>
    <use xlink:href="#bbburst-shape-13" width="34.40685473197448" opacity="0.4773461895157116"
        transform="matrix(0.8167143125034635,0.5770422270094234,-0.5770422270094234,0.8167143125034635,535.2233827430869,260.2046123176397)"
        fill="none" stroke="hsl(206, 75%, 49%)"></use>
    <use xlink:href="#bbburst-shape-10" width="20.485760394358188" opacity="0.6880734861648461"
        transform="matrix(0.996366118459745,-0.08517369303641457,0.08517369303641457,0.996366118459745,685.6383883852858,98.37526052249024)"
        fill="none" stroke="hsl(206, 75%, 49%)"></use>
    <use xlink:href="#bbburst-shape-11" width="49.52628313674254" opacity="0.327178622370092"
        transform="matrix(0.9576640651452786,0.28788806562520014,-0.28788806562520014,0.9576640651452786,394.0455129351044,-43.69002013243892)"
        fill="none" stroke="hsl(162, 100%, 58%)"></use>
    <use xlink:href="#bbburst-shape-10" width="40.28663962782633" opacity="0.4448375019754436"
        transform="matrix(0.9167210817738785,0.3995277940661076,-0.3995277940661076,0.9167210817738785,401.43263324779,296.03652507184944)"
        fill="none" stroke="hsl(206, 75%, 49%)"></use>
    <use xlink:href="#bbburst-shape-11" width="39.63029227011509" opacity="0.48739659250188094"
        transform="matrix(0.9981765657765492,0.06036177212884324,-0.06036177212884324,0.9981765657765492,390.9661750915372,95.97633069605928)"
        fill="none" stroke="hsl(206, 75%, 49%)"></use>
    <use xlink:href="#bbburst-shape-10" width="24.43145402459893" opacity="0.6717340488573924"
        transform="matrix(0.7557172393288443,0.6548980486924589,-0.6548980486924589,0.7557172393288443,734.2084004697258,410.3148260914857)"
        fill="none" stroke="hsl(206, 75%, 49%)"></use>
    <use xlink:href="#bbburst-shape-1" width="7.02914005265941" opacity="0.9279238110110455"
        transform="matrix(0.9907091283476412,-0.13599787869175317,0.13599787869175317,0.9907091283476412,732.1098451335215,332.8256255914454)"
        fill="hsl(162, 100%, 58%)"></use>
    <use xlink:href="#bbburst-shape-3" width="23.6388331859887" opacity="0.65015153347393"
        transform="matrix(0.9129885315277114,0.40798522191235437,-0.40798522191235437,0.9129885315277114,630.3588120992285,293.07172599077495)"
        fill="hsl(162, 100%, 58%)"></use>
    <use xlink:href="#bbburst-shape-10" width="28.032375017080692" opacity="0.5663239470812228"
        transform="matrix(0.8965931311133847,-0.4428552328247877,0.4428552328247877,0.8965931311133847,289.5455892976056,155.68421526052612)"
        fill="none" stroke="hsl(162, 100%, 58%)"></use>
    <use xlink:href="#bbburst-shape-5" width="7.2870327585635986" opacity="0.9612415072482458"
        transform="matrix(0.9999911828976124,0.004199300779167363,-0.004199300779167363,0.9999911828976124,789.3032410008693,362.22640019209666)"
        fill="hsl(206, 75%, 49%)"></use>
    <use xlink:href="#bbburst-shape-1" width="13.33830174154636" opacity="0.8021059289905808"
        transform="matrix(0.7135456816302499,0.7006087069304964,-0.7006087069304964,0.7135456816302499,979.2552658729667,336.9930165274906)"
        fill="hsl(206, 75%, 49%)"></use>
    <use xlink:href="#bbburst-shape-10" width="19.435210281519993" opacity="0.6420202592610215"
        transform="matrix(0.9461747716922848,-0.3236561468797599,0.3236561468797599,0.9461747716922848,630.541630745586,68.02308173631349)"
        fill="none" stroke="hsl(206, 75%, 49%)"></use>
    <use xlink:href="#bbburst-shape-5" width="39.244913402543254" opacity="0.49777802750768085"
        transform="matrix(0.792086517895138,0.6104088369025756,-0.6104088369025756,0.792086517895138,987.6135927507767,-29.357340871901954)"
        fill="hsl(206, 75%, 49%)"></use>
    <use xlink:href="#bbburst-shape-1" width="19.125493261675715" opacity="0.6915994455524894"
        transform="matrix(0.8009896886464607,0.5986781428130192,-0.5986781428130192,0.8009896886464607,777.3352212475686,299.65710518087803)"
        fill="hsl(206, 75%, 49%)"></use>
    <use xlink:href="#bbburst-shape-10" width="9.945942471091668" opacity="0.8314940667520222"
        transform="matrix(0.770053972473501,0.6379787453181968,-0.6379787453181968,0.770053972473501,993.2454022350909,330.639059716073)"
        fill="none" stroke="hsl(162, 100%, 58%)"></use>
    <use xlink:href="#bbburst-shape-11" width="12.188108862231505" opacity="0.7849137587254664"
        transform="matrix(0.9935866013893516,-0.11307371728017813,0.11307371728017813,0.9935866013893516,534.2050684519849,387.13077537888944)"
        fill="none" stroke="hsl(206, 75%, 49%)"></use>
    <use xlink:href="#bbburst-shape-10" width="13.73519526148873" opacity="0.7375119758031798"
        transform="matrix(0.7097998279835169,-0.7044034385169977,0.7044034385169977,0.7097998279835169,489.0913193948023,259.5542818662086)"
        fill="none" stroke="hsl(206, 75%, 49%)"></use>
    <use xlink:href="#bbburst-shape-11" width="33.95945765429431" opacity="0.5442259755173803"
        transform="matrix(0.873403610167405,0.4869970572257534,-0.4869970572257534,0.873403610167405,583.1622203487814,218.14480417546974)"
        fill="none" stroke="hsl(162, 100%, 58%)"></use>
    <use xlink:href="#bbburst-shape-10" width="13.205452260792987" opacity="0.8050219523517612"
        transform="matrix(0.9567461573019285,-0.29092402872226564,0.29092402872226564,0.9567461573019285,549.8311815705022,271.69357206530816)"
        fill="none" stroke="hsl(206, 75%, 49%)"></use>
    <use xlink:href="#bbburst-shape-5" width="26.315394759210694" opacity="0.6162942847747728"
        transform="matrix(0.8948338627904081,-0.4463993257203655,0.4463993257203655,0.8948338627904081,514.4773599268785,76.22894721213413)"
        fill="hsl(206, 75%, 49%)"></use>
    <use xlink:href="#bbburst-shape-13" width="6.0331012453517205" opacity="0.9580310398530747"
        transform="matrix(0.9293136767908444,0.36929133503168204,-0.36929133503168204,0.9293136767908444,905.2732880095176,413.37395607415436)"
        fill="none" stroke="hsl(162, 100%, 58%)"></use>
    <use xlink:href="#bbburst-shape-1" width="23.344527797814745" opacity="0.7172761669650991"
        transform="matrix(0.9054592657792657,0.42443317261316077,-0.42443317261316077,0.9054592657792657,756.9294516552269,235.3477301583606)"
        fill="hsl(206, 75%, 49%)"></use>
    <use xlink:href="#bbburst-shape-13" width="11.653043626345006" opacity="0.8692772723871486"
        transform="matrix(0.9606437332733165,-0.27778340073284635,0.27778340073284635,0.9606437332733165,553.1536412532288,404.98752554304025)"
        fill="none" stroke="hsl(162, 100%, 58%)"></use>
    <use xlink:href="#bbburst-shape-13" width="39.55797879378889" opacity="0.28750541751733916"
        transform="matrix(0.9402169240764335,0.340576181903917,-0.340576181903917,0.9402169240764335,206.48730319551981,373.3704097988702)"
        fill="none" stroke="hsl(162, 100%, 58%)"></use>
    <use xlink:href="#bbburst-shape-13" width="10.212581148106333" opacity="0.9538749027637258"
        transform="matrix(0.884476048205774,0.4665855978813507,-0.4665855978813507,0.884476048205774,949.9908062471336,410.7305547545126)"
        fill="none" stroke="hsl(206, 75%, 49%)"></use>
    <use xlink:href="#bbburst-shape-1" width="11.936101117636326" opacity="0.846300772162732"
        transform="matrix(0.7821930328676665,-0.6230361621393108,0.6230361621393108,0.7821930328676665,527.6174227617287,338.27249395299765)"
        fill="hsl(206, 75%, 49%)"></use>
    <use xlink:href="#bbburst-shape-10" width="16.27949827879244" opacity="0.7472487194535575"
        transform="matrix(0.7240887812074616,-0.6897067760501507,0.6897067760501507,0.7240887812074616,301.7720162729445,385.47177203225897)"
        fill="none" stroke="hsl(162, 100%, 58%)"></use>
    <use xlink:href="#bbburst-shape-10" width="58.60491845769342" opacity="0.2681601188969014"
        transform="matrix(0.989178011885209,-0.14672034897322592,0.14672034897322592,0.989178011885209,11.877910656581776,196.58712983195585)"
        fill="none" stroke="hsl(162, 100%, 58%)"></use>
    <use xlink:href="#bbburst-shape-10" width="22.78876084308494" opacity="0.7193825236512161"
        transform="matrix(0.7496245476664019,0.6618633072893092,-0.6618633072893092,0.7496245476664019,785.2416958129822,419.6312151684171)"
        fill="none" stroke="hsl(162, 100%, 58%)"></use>
    <use xlink:href="#bbburst-shape-1" width="12.296461026240689" opacity="0.8774831847615748"
        transform="matrix(0.9754451748579357,0.22024239112026367,-0.22024239112026367,0.9754451748579357,866.9354332552778,286.908120513039)"
        fill="hsl(206, 75%, 49%)"></use>
    <use xlink:href="#bbburst-shape-1" width="6.759562229279256" opacity="0.9448330652147912"
        transform="matrix(0.9783478481258228,0.20696735990868698,-0.20696735990868698,0.9783478481258228,863.1807323483789,355.26530637776864)"
        fill="hsl(206, 75%, 49%)"></use>
    <use xlink:href="#bbburst-shape-11" width="22.349577323019" opacity="0.7043466437576484"
        transform="matrix(0.983608624304989,0.18031659433576008,-0.18031659433576008,0.983608624304989,592.9215548701948,279.98199524306216)"
        fill="none" stroke="hsl(206, 75%, 49%)"></use>
    <use xlink:href="#bbburst-shape-10" width="11.572035820190829" opacity="0.8095288567190422"
        transform="matrix(0.9656190637870672,0.2599611964332137,-0.2599611964332137,0.9656190637870672,854.750899227268,226.84532972090216)"
        fill="none" stroke="hsl(162, 100%, 58%)"></use>
    <use xlink:href="#bbburst-shape-13" width="86.11012801147724" opacity="-0.006321589187172405"
        transform="matrix(0.9602436278722062,0.27916334847329805,-0.27916334847329805,0.9602436278722062,155.8702133752376,-304.807026823674)"
        fill="none" stroke="hsl(162, 100%, 58%)"></use>
    <use xlink:href="#bbburst-shape-10" width="15.43628240308987" opacity="0.822820112072752"
        transform="matrix(0.982392184980423,-0.18683039070073792,0.18683039070073792,0.982392184980423,547.7155025027079,358.4563113713451)"
        fill="none" stroke="hsl(206, 75%, 49%)"></use>
    <use xlink:href="#bbburst-shape-1" width="12.162993695753656" opacity="0.878259449101437"
        transform="matrix(0.8152911700245116,0.5790512136936274,-0.5790512136936274,0.8152911700245116,918.1545221979947,415.1589166537559)"
        fill="hsl(162, 100%, 58%)"></use>
    <use xlink:href="#bbburst-shape-11" width="14.570584903360807" opacity="0.8314565591611649"
        transform="matrix(0.7098238631706639,0.7043792183713788,-0.7043792183713788,0.7098238631706639,925.7619759545189,435.833701131534)"
        fill="none" stroke="hsl(206, 75%, 49%)"></use>
    <use xlink:href="#bbburst-shape-1" width="55.87370056510517" opacity="0.26333570041599996"
        transform="matrix(0.9775713838497977,0.2106043434452184,-0.2106043434452184,0.9775713838497977,233.04571486293557,11.418793405144754)"
        fill="hsl(206, 75%, 49%)"></use>
    <use xlink:href="#bbburst-shape-10" width="20.915851906179533" opacity="0.650522222420199"
        transform="matrix(0.9991555116365206,-0.04108848459559772,0.04108848459559772,0.9991555116365206,650.2328124646418,73.60612199169742)"
        fill="none" stroke="hsl(206, 75%, 49%)"></use>
    <use xlink:href="#bbburst-shape-3" width="51.2324575451963" opacity="0.2454527538843312"
        transform="matrix(0.9794776805669662,0.20155265632374142,-0.20155265632374142,0.9794776805669662,412.7008896419036,-208.06883882425788)"
        fill="hsl(162, 100%, 58%)"></use>
    <use xlink:href="#bbburst-shape-11" width="18.22889839312917" opacity="0.7551257837839032"
        transform="matrix(0.8507488837016307,0.5255723897622754,-0.5255723897622754,0.8507488837016307,773.1401747562242,369.1980376709186)"
        fill="none" stroke="hsl(162, 100%, 58%)"></use>
    <use xlink:href="#bbburst-shape-10" width="41.11343083607728" opacity="0.4113690218077307"
        transform="matrix(0.980275116196695,-0.19763779133950066,0.19763779133950066,0.980275116196695,644.5300110327173,-173.98312389448907)"
        fill="none" stroke="hsl(162, 100%, 58%)"></use>
    <use xlink:href="#bbburst-shape-3" width="6.8226546748952925" opacity="0.9747331383299913"
        transform="matrix(0.8060321769761799,-0.5918717172487973,0.5918717172487973,0.8060321769761799,548.8393723017261,457.196307829514)"
        fill="hsl(206, 75%, 49%)"></use>
    <use xlink:href="#bbburst-shape-11" width="56.49716349048876" opacity="0.1838839098098468"
        transform="matrix(0.9414357909303244,0.3371923064890339,-0.3371923064890339,0.9414357909303244,165.7587837638573,75.07439892369791)"
        fill="none" stroke="hsl(162, 100%, 58%)"></use>
    <use xlink:href="#bbburst-shape-1" width="53.794567548372" opacity="0.38239098701188656"
        transform="matrix(0.7391553580905023,-0.6735349705888339,0.6735349705888339,0.7391553580905023,134.24133670878786,32.93305307883401)"
        fill="hsl(162, 100%, 58%)"></use>
    <use xlink:href="#bbburst-shape-11" width="36.7856375535937" opacity="0.3769330239758293"
        transform="matrix(0.9910194427066108,-0.13371785287491925,0.13371785287491925,0.9910194427066108,553.4436114782104,-192.46914052270597)"
        fill="none" stroke="hsl(162, 100%, 58%)"></use>
    <use xlink:href="#bbburst-shape-10" width="8.216573482089286" opacity="0.9189715310091507"
        transform="matrix(0.8151604004436055,-0.5792352903170013,0.5792352903170013,0.8151604004436055,530.5535703609614,402.95326049244187)"
        fill="none" stroke="hsl(206, 75%, 49%)"></use>
    <use xlink:href="#bbburst-shape-13" width="8.249115432258149" opacity="0.9039840431668996"
        transform="matrix(0.990339160555664,0.13866631555609613,-0.13866631555609613,0.990339160555664,837.3675141503835,308.30469703553644)"
        fill="none" stroke="hsl(162, 100%, 58%)"></use>
    <use xlink:href="#bbburst-shape-3" width="20.17788825939955" opacity="0.6623330683249533"
        transform="matrix(0.7555435883896875,-0.6550983789044471,0.6550983789044471,0.7555435883896875,363.5663397721743,210.80035953585696)"
        fill="hsl(206, 75%, 49%)"></use>
    <use xlink:href="#bbburst-shape-3" width="28.91756738463071" opacity="0.5537477909338173"
        transform="matrix(0.8239111815843045,-0.5667189469749139,0.5667189469749139,0.8239111815843045,116.46634423376281,443.2478638661154)"
        fill="hsl(206, 75%, 49%)"></use>
    <use xlink:href="#bbburst-shape-10" width="40.126657116880004" opacity="0.3144826568573529"
        transform="matrix(0.9761904631157253,0.21691514405846768,-0.21691514405846768,0.9761904631157253,808.6845128946046,-277.84525630636574)"
        fill="none" stroke="hsl(162, 100%, 58%)"></use>
    <use xlink:href="#bbburst-shape-10" width="15.144861606990144" opacity="0.8647354510740439"
        transform="matrix(0.9985945889477298,-0.052998555870085104,0.052998555870085104,0.9985945889477298,724.3949214071765,274.0692380513392)"
        fill="none" stroke="hsl(162, 100%, 58%)"></use>
    <use xlink:href="#bbburst-shape-5" width="23.3293533980374" opacity="0.5817230019980862"
        transform="matrix(0.72853274698473,0.6850109755112567,-0.6850109755112567,0.72853274698473,675.664630323601,349.00773590575955)"
        fill="hsl(206, 75%, 49%)"></use>
    <use xlink:href="#bbburst-shape-1" width="11.328662316811508" opacity="0.8583894741594348"
        transform="matrix(0.9853381025232499,0.17061308190136368,-0.17061308190136368,0.9853381025232499,728.1022720778872,360.78370880394584)"
        fill="hsl(162, 100%, 58%)"></use>
    <use xlink:href="#bbburst-shape-10" width="62.5464771552735" opacity="0.33001296966065286"
        transform="matrix(0.9791155586587835,-0.20330450755528817,0.20330450755528817,0.9791155586587835,381.57937664448167,-181.06791367710977)"
        fill="none" stroke="hsl(206, 75%, 49%)"></use>
    <use xlink:href="#bbburst-shape-10" width="57.21289435129956" opacity="0.36482274095293676"
        transform="matrix(0.9472765460443113,-0.32041714266618077,0.32041714266618077,0.9472765460443113,54.34400877823907,195.97196970828224)"
        fill="none" stroke="hsl(206, 75%, 49%)"></use>
    <use xlink:href="#bbburst-shape-11" width="59.894907943541895" opacity="0.10328360403163372"
        transform="matrix(0.9993997583679333,-0.03464279108438885,0.03464279108438885,0.9993997583679333,24.658426946121146,-118.11384757999957)"
        fill="none" stroke="hsl(206, 75%, 49%)"></use>
    <use xlink:href="#bbburst-shape-13" width="38.23900698820914" opacity="0.4622392609122067"
        transform="matrix(0.9940933594313831,0.10852830384018278,-0.10852830384018278,0.9940933594313831,447.35593927165075,16.85473068159871)"
        fill="none" stroke="hsl(162, 100%, 58%)"></use>
    <use xlink:href="#bbburst-shape-13" width="15.399619099010124" opacity="0.7880196361085839"
        transform="matrix(0.8747446456871345,0.48458415661440013,-0.48458415661440013,0.8747446456871345,782.5120574935781,390.8719087213946)"
        fill="none" stroke="hsl(206, 75%, 49%)"></use>
    <use xlink:href="#bbburst-shape-10" width="15.202198334773627" opacity="0.7757827905190695"
        transform="matrix(0.9188553119484046,-0.39459462199097456,0.39459462199097456,0.9188553119484046,611.2399733062293,212.5215075929616)"
        fill="none" stroke="hsl(206, 75%, 49%)"></use>
    <use xlink:href="#bbburst-shape-3" width="16.421673531576477" opacity="0.7657580633733586"
        transform="matrix(0.8188196668144734,-0.5740508280961145,0.5740508280961145,0.8188196668144734,384.04794626291226,326.7938400538014)"
        fill="hsl(206, 75%, 49%)"></use>
    <use xlink:href="#bbburst-shape-5" width="54.79977353699845" opacity="0.17992112457800924"
        transform="matrix(0.8092083627444876,-0.5875217661196781,0.5875217661196781,0.8092083627444876,183.80888726090058,-244.90549152282574)"
        fill="hsl(162, 100%, 58%)"></use>
    <use xlink:href="#bbburst-shape-5" width="31.55947001366333" opacity="0.4731151799211373"
        transform="matrix(0.9267397272121629,-0.37570397656496246,0.37570397656496246,0.9267397272121629,109.48565504762425,398.58896400059666)"
        fill="hsl(162, 100%, 58%)"></use>
</svg>
