<svg xmlns="http://www.w3.org/2000/svg" version="1.1" xmlns:xlink="http://www.w3.org/1999/xlink"
    xmlns:svgjs="http://svgjs.dev/svgjs" viewBox="0 0 800 800" opacity="80%">
    <defs>
        <symbol id="bbburst-shape-1" viewBox="0 0 194 167">
            <path d="m97 0 96.129 166.5H.871L97 0Z"></path>
        </symbol>
        <symbol id="bbburst-shape-3" viewBox="0 0 131 127">
            <path d="m66 0 66 63.5L66 127 0 63.5 66 0Z"></path>
        </symbol>
        <symbol id="bbburst-shape-5" viewBox="0 0 145 145">
            <circle cx="72.5" cy="72.5" r="72.5"></circle>
        </symbol>
        <symbol id="bbburst-shape-10" viewBox="0 0 145 145">
            <circle cx="72.5" cy="72.5" r="61.5" fill="none" stroke-width="22"></circle>
        </symbol>
        <symbol id="bbburst-shape-11" viewBox="0 0 194 167">
            <path d="M10.398 161 97 11l86.603 150H10.397Z" stroke-width="11"></path>
        </symbol>
        <symbol id="bbburst-shape-13" viewBox="0 0 159 159">
            <path stroke-width="22" d="M11 11h137v137H11z"></path>
        </symbol>
    </defs>
    <use xlink:href="#bbburst-shape-5" width="18.76559103747624" opacity="0.7191748254678727"
        transform="matrix(0.7843107134323999,-0.6203682009864464,0.6203682009864464,0.7843107134323999,-184.43014603587494,-36.22177374795098)"
        fill="hsl(206, 75%, 49%)"></use>
    <use xlink:href="#bbburst-shape-11" width="34.12652315164601" opacity="0.24375559658148405"
        transform="matrix(0.827833996233767,0.5609731496958046,-0.5609731496958046,0.827833996233767,963.4698922336974,-270.6592101064558)"
        fill="none" stroke="hsl(162, 100%, 58%)"></use>
    <use xlink:href="#bbburst-shape-5" width="70.6273579753605" opacity="-0.016680773370868485"
        transform="matrix(0.9999808220805299,0.006193179405425551,-0.006193179405425551,0.9999808220805299,689.1225189857649,315.62138391604947)"
        fill="hsl(206, 75%, 49%)"></use>
    <use xlink:href="#bbburst-shape-1" width="16.264895901522248" opacity="0.7779796288658261"
        transform="matrix(0.9230731411667287,0.3846244610741608,-0.3846244610741608,0.9230731411667287,361.357903243538,-317.0373692873478)"
        fill="hsl(162, 100%, 58%)"></use>
    <use xlink:href="#bbburst-shape-1" width="32.44493878949187" opacity="0.5584714372552598"
        transform="matrix(0.9985815936668431,0.05324284731105026,-0.05324284731105026,0.9985815936668431,33.792432761360544,40.3403853943168)"
        fill="hsl(206, 75%, 49%)"></use>
    <use xlink:href="#bbburst-shape-1" width="44.00185626203187" opacity="0.3348008984763925"
        transform="matrix(0.9901614724032467,0.13992947712413756,-0.13992947712413756,0.9901614724032467,695.2068373457432,-324.7060841394116)"
        fill="hsl(162, 100%, 58%)"></use>
    <use xlink:href="#bbburst-shape-11" width="28.94745063800464" opacity="0.6355316389099165"
        transform="matrix(0.9745431170667892,-0.22420016275138258,0.22420016275138258,0.9745431170667892,148.05970404482835,-123.55558704476738)"
        fill="none" stroke="hsl(162, 100%, 58%)"></use>
    <use xlink:href="#bbburst-shape-11" width="20.16749611015809" opacity="0.5880733094681823"
        transform="matrix(0.8952083674375644,0.44564781932572134,-0.44564781932572134,0.8952083674375644,580.4679096013709,-337.043006961302)"
        fill="none" stroke="hsl(206, 75%, 49%)"></use>
    <use xlink:href="#bbburst-shape-5" width="16.24254290029342" opacity="0.7944663245826712"
        transform="matrix(0.8480350212195636,0.5299401879317459,-0.5299401879317459,0.8480350212195636,333.85665799852393,-183.3211111359688)"
        fill="hsl(162, 100%, 58%)"></use>
    <use xlink:href="#bbburst-shape-1" width="10.90653821545829" opacity="0.9026271104394719"
        transform="matrix(0.8779874664849664,-0.4786836206674613,0.4786836206674613,0.8779874664849664,-164.54855880235607,-256.50593659676775)"
        fill="hsl(162, 100%, 58%)"></use>
    <use xlink:href="#bbburst-shape-10" width="38.224080718740424" opacity="0.2363906506743939"
        transform="matrix(0.7902253964301652,-0.6128163043170346,0.6128163043170346,0.7902253964301652,-181.32506710482102,455.1438099122798)"
        fill="none" stroke="hsl(162, 100%, 58%)"></use>
    <use xlink:href="#bbburst-shape-3" width="11.893306004322264" opacity="0.9094541535598335"
        transform="matrix(0.996527021536834,0.08327001469272353,-0.08327001469272353,0.996527021536834,92.37769369711395,-336.1158874194035)"
        fill="hsl(206, 75%, 49%)"></use>
    <use xlink:href="#bbburst-shape-3" width="18.37088917969227" opacity="0.752093032885071"
        transform="matrix(0.9404821966634852,-0.3398429604376492,0.3398429604376492,0.9404821966634852,102.57872520244374,-354.6127877682321)"
        fill="hsl(162, 100%, 58%)"></use>
    <use xlink:href="#bbburst-shape-1" width="16.96076322614508" opacity="0.7984813431161966"
        transform="matrix(0.9847768758282393,0.17382319993019502,-0.17382319993019502,0.9847768758282393,146.7738643810867,-212.92850375194223)"
        fill="hsl(162, 100%, 58%)"></use>
    <use xlink:href="#bbburst-shape-13" width="40.53796159947476" opacity="0.1629291230337938"
        transform="matrix(0.7432019936556541,-0.6690671092097273,0.6690671092097273,0.7432019936556541,458.5378562273772,105.2120417310972)"
        fill="none" stroke="hsl(162, 100%, 58%)"></use>
    <use xlink:href="#bbburst-shape-5" width="32.6175705147439" opacity="0.5625512586417694"
        transform="matrix(0.8289339394324351,0.5593465151916331,-0.5593465151916331,0.8289339394324351,482.10376686538314,2.000009200876434)"
        fill="hsl(162, 100%, 58%)"></use>
    <use xlink:href="#bbburst-shape-11" width="23.68401234979534" opacity="0.6873451021762433"
        transform="matrix(0.7479042825681135,0.6638065863760886,-0.6638065863760886,0.7479042825681135,556.0712995636461,-216.52702229094882)"
        fill="none" stroke="hsl(206, 75%, 49%)"></use>
    <use xlink:href="#bbburst-shape-3" width="42.11860914067836" opacity="0.4578284364677271"
        transform="matrix(0.971580666156628,-0.23670870104548983,0.23670870104548983,0.971580666156628,411.8550572971648,-256.8928910970623)"
        fill="hsl(162, 100%, 58%)"></use>
    <use xlink:href="#bbburst-shape-11" width="23.659282797833782" opacity="0.5848882676520424"
        transform="matrix(0.7806014148178135,-0.6250291442680316,0.6250291442680316,0.7806014148178135,-111.21245843394505,82.66186084514919)"
        fill="none" stroke="hsl(206, 75%, 49%)"></use>
    <use xlink:href="#bbburst-shape-11" width="37.99625006900855" opacity="0.4806922240236787"
        transform="matrix(0.7686305319996336,0.6396929773555126,-0.6396929773555126,0.7686305319996336,675.4512339912804,-34.599117372387695)"
        fill="none" stroke="hsl(206, 75%, 49%)"></use>
    <use xlink:href="#bbburst-shape-13" width="22.366023677320143" opacity="0.6521876777631024"
        transform="matrix(0.8288901302835021,0.5594114334893405,-0.5594114334893405,0.8288901302835021,560.3708749012778,-301.1601238734145)"
        fill="none" stroke="hsl(206, 75%, 49%)"></use>
    <use xlink:href="#bbburst-shape-10" width="36.54593371121449" opacity="0.3214986782541208"
        transform="matrix(0.9117833944384366,0.41067145216866774,-0.41067145216866774,0.9117833944384366,193.9922953952652,304.6964196773103)"
        fill="none" stroke="hsl(206, 75%, 49%)"></use>
    <use xlink:href="#bbburst-shape-13" width="9.112583919967095" opacity="0.9558971535282145"
        transform="matrix(0.9504614228791957,-0.31084253830268277,0.31084253830268277,0.9504614228791957,-100.57139444453284,-344.77321191397004)"
        fill="none" stroke="hsl(206, 75%, 49%)"></use>
    <use xlink:href="#bbburst-shape-11" width="12.531757110122793" opacity="0.8512574994942295"
        transform="matrix(0.7201847169860764,0.6937823674753381,-0.6937823674753381,0.7201847169860764,399.6443944482801,-214.34541382920696)"
        fill="none" stroke="hsl(162, 100%, 58%)"></use>
    <use xlink:href="#bbburst-shape-13" width="10.041796864229006" opacity="0.8245864286886717"
        transform="matrix(0.9281512743712607,0.3722031862880875,-0.3722031862880875,0.9281512743712607,317.53998815467696,-346.10170988876746)"
        fill="none" stroke="hsl(162, 100%, 58%)"></use>
    <use xlink:href="#bbburst-shape-13" width="17.00087713416415" opacity="0.7605481358744272"
        transform="matrix(0.9363324919472031,0.3511146031197517,-0.3511146031197517,0.9363324919472031,253.73272018659952,-171.0313777651556)"
        fill="none" stroke="hsl(162, 100%, 58%)"></use>
    <use xlink:href="#bbburst-shape-10" width="23.011582620110605" opacity="0.6076969931414727"
        transform="matrix(0.7419648267851652,0.6704388084036155,-0.6704388084036155,0.7419648267851652,454.7484183423997,35.84381068697269)"
        fill="none" stroke="hsl(162, 100%, 58%)"></use>
    <use xlink:href="#bbburst-shape-10" width="10.84207788476634" opacity="0.9625224899754276"
        transform="matrix(0.8888818938695706,0.45813641936746896,-0.45813641936746896,0.8888818938695706,214.2466756002528,-346.9841117571524)"
        fill="none" stroke="hsl(162, 100%, 58%)"></use>
    <use xlink:href="#bbburst-shape-13" width="20.53889378908465" opacity="0.7021090118015046"
        transform="matrix(0.7189926224796249,0.6950177039614686,-0.6950177039614686,0.7189926224796249,567.3785277161085,-268.74510179595813)"
        fill="none" stroke="hsl(162, 100%, 58%)"></use>
    <use xlink:href="#bbburst-shape-11" width="15.039899773494684" opacity="0.7331661555279294"
        transform="matrix(0.8954312355106105,0.44519984554348335,-0.44519984554348335,0.8954312355106105,431.67706409494724,-302.76062432721994)"
        fill="none" stroke="hsl(206, 75%, 49%)"></use>
    <use xlink:href="#bbburst-shape-3" width="52.30055354988491" opacity="0.39005257468744226"
        transform="matrix(0.9982442607526222,-0.05923171341815773,0.05923171341815773,0.9982442607526222,273.35247795661286,119.4490888238526)"
        fill="hsl(162, 100%, 58%)"></use>
    <use xlink:href="#bbburst-shape-11" width="28.11416129999544" opacity="0.6295005408045673"
        transform="matrix(0.8363579072736227,0.5481837747880599,-0.5481837747880599,0.8363579072736227,557.0585296768761,-219.14543275974444)"
        fill="none" stroke="hsl(206, 75%, 49%)"></use>
    <use xlink:href="#bbburst-shape-3" width="28.949263855809253" opacity="0.5404018957070313"
        transform="matrix(0.8684616263348542,0.4957563954038515,-0.4957563954038515,0.8684616263348542,623.2129835833415,-214.05668956942856)"
        fill="hsl(162, 100%, 58%)"></use>
    <use xlink:href="#bbburst-shape-3" width="12.326683257784708" opacity="0.8826401849363661"
        transform="matrix(0.745525534612129,0.6664770643025154,-0.6664770643025154,0.745525534612129,369.5841032712077,-255.54594755912422)"
        fill="hsl(162, 100%, 58%)"></use>
    <use xlink:href="#bbburst-shape-3" width="9.660542613402956" opacity="0.9268420303709692"
        transform="matrix(0.8624049417789756,0.506219039937458,-0.506219039937458,0.8624049417789756,235.6873464777508,-284.54863808386926)"
        fill="hsl(206, 75%, 49%)"></use>
    <use xlink:href="#bbburst-shape-13" width="36.77862696631695" opacity="0.42359794271508666"
        transform="matrix(0.8228694373312707,0.5682304894196701,-0.5682304894196701,0.8228694373312707,786.7025642702786,-293.33260909128404)"
        fill="none" stroke="hsl(206, 75%, 49%)"></use>
    <use xlink:href="#bbburst-shape-5" width="11.934087195996856" opacity="0.8854109801661244"
        transform="matrix(0.992049473481371,0.12584848892749811,-0.12584848892749811,0.992049473481371,58.00241004125155,-283.78955851858063)"
        fill="hsl(206, 75%, 49%)"></use>
    <use xlink:href="#bbburst-shape-5" width="9.45965821332036" opacity="0.9823895926075925"
        transform="matrix(0.7579222534322709,-0.6523448917192105,0.6523448917192105,0.7579222534322709,-253.69209169678967,-286.19737744900084)"
        fill="hsl(206, 75%, 49%)"></use>
    <use xlink:href="#bbburst-shape-1" width="32.334449491284204" opacity="0.20814102313739113"
        transform="matrix(0.9866317850288719,0.16296539746443633,-0.16296539746443633,0.9866317850288719,280.34061930196236,360.13585001764017)"
        fill="hsl(162, 100%, 58%)"></use>
    <use xlink:href="#bbburst-shape-3" width="11.80630545205162" opacity="0.9359997672491317"
        transform="matrix(0.7442138020018736,-0.6679414771594261,0.6679414771594261,0.7442138020018736,-219.1930579860446,-256.98110160971436)"
        fill="hsl(206, 75%, 49%)"></use>
    <use xlink:href="#bbburst-shape-10" width="51.09742880685866" opacity="0.16753790475961383"
        transform="matrix(0.8018048304676285,-0.5975859886566764,0.5975859886566764,0.8018048304676285,320.5626179099782,291.6200766544955)"
        fill="none" stroke="hsl(162, 100%, 58%)"></use>
    <use xlink:href="#bbburst-shape-11" width="45.359134599527316" opacity="0.14937754059556585"
        transform="matrix(0.7852793020836332,0.6191416782280466,-0.6191416782280466,0.7852793020836332,638.6124327080553,417.55429977513467)"
        fill="none" stroke="hsl(162, 100%, 58%)"></use>
    <use xlink:href="#bbburst-shape-5" width="28.314353799537145" opacity="0.5928193083404809"
        transform="matrix(0.9884798737265725,0.15135236779614372,-0.15135236779614372,0.9884798737265725,445.3891355476993,-315.55334237386654)"
        fill="hsl(162, 100%, 58%)"></use>
    <use xlink:href="#bbburst-shape-10" width="50.09298877193804" opacity="0.2263628900584468"
        transform="matrix(0.7115677087019557,0.7026175317572488,-0.7026175317572488,0.7115677087019557,1005.8380410302366,-85.33846366182479)"
        fill="none" stroke="hsl(162, 100%, 58%)"></use>
    <use xlink:href="#bbburst-shape-5" width="11.21617757465799" opacity="0.8259739065222209"
        transform="matrix(0.9969871747644187,0.07756657369809869,-0.07756657369809869,0.9969871747644187,186.72755152615727,-333.8851590579137)"
        fill="hsl(206, 75%, 49%)"></use>
    <use xlink:href="#bbburst-shape-10" width="42.86071343189519" opacity="0.35649149825669724"
        transform="matrix(0.8845895425781044,0.46637039052823664,-0.46637039052823664,0.8845895425781044,782.537604752484,-174.24131579104372)"
        fill="none" stroke="hsl(206, 75%, 49%)"></use>
    <use xlink:href="#bbburst-shape-13" width="44.14744444166725" opacity="0.36742940865357876"
        transform="matrix(0.8196123649453356,0.5729184682210148,-0.5729184682210148,0.8196123649453356,754.2936711583443,-16.362417933042764)"
        fill="none" stroke="hsl(162, 100%, 58%)"></use>
    <use xlink:href="#bbburst-shape-11" width="18.706314803965608" opacity="0.7209127432237226"
        transform="matrix(0.7684819974566044,-0.6398714086323185,0.6398714086323185,0.7684819974566044,-83.16349705532176,-88.4173770158136)"
        fill="none" stroke="hsl(162, 100%, 58%)"></use>
    <use xlink:href="#bbburst-shape-13" width="24.810803835578206" opacity="0.7530414065164523"
        transform="matrix(0.9060058539456133,-0.4232651563928693,0.4232651563928693,0.9060058539456133,-158.6954368181637,-111.16147713851325)"
        fill="none" stroke="hsl(206, 75%, 49%)"></use>
    <use xlink:href="#bbburst-shape-10" width="33.93624785075628" opacity="0.40762503407644857"
        transform="matrix(0.999866963647254,-0.016311192685419067,0.016311192685419067,0.999866963647254,30.617493891021848,190.22865783847493)"
        fill="none" stroke="hsl(206, 75%, 49%)"></use>
    <use xlink:href="#bbburst-shape-13" width="14.348135089061483" opacity="0.8489673337393541"
        transform="matrix(0.86677362563348,-0.49870179657405656,0.49870179657405656,0.86677362563348,-189.44074269398163,-192.97670050121792)"
        fill="none" stroke="hsl(206, 75%, 49%)"></use>
    <use xlink:href="#bbburst-shape-13" width="8.657476347531802" opacity="0.9375292461202159"
        transform="matrix(0.7948157220495311,0.6068508614007914,-0.6068508614007914,0.7948157220495311,300.39227551019985,-307.5031388399968)"
        fill="none" stroke="hsl(206, 75%, 49%)"></use>
    <use xlink:href="#bbburst-shape-13" width="27.301796882287714" opacity="0.559023298876401"
        transform="matrix(0.8385578384615218,0.5448125838806777,-0.5448125838806777,0.8385578384615218,301.36861541110085,87.78595870509776)"
        fill="none" stroke="hsl(162, 100%, 58%)"></use>
    <use xlink:href="#bbburst-shape-13" width="17.68701469621983" opacity="0.7870359377686699"
        transform="matrix(0.7157614390125794,-0.6983448735564983,0.6983448735564983,0.7157614390125794,-91.67291650393057,-192.26703895001225)"
        fill="none" stroke="hsl(206, 75%, 49%)"></use>
    <use xlink:href="#bbburst-shape-3" width="14.591618949227708" opacity="0.7948690905824269"
        transform="matrix(0.9968322876570688,0.07953232226192665,-0.07953232226192665,0.9968322876570688,228.91947831456645,-382.4320759008893)"
        fill="hsl(206, 75%, 49%)"></use>
    <use xlink:href="#bbburst-shape-11" width="9.632529326389081" opacity="0.854891008043028"
        transform="matrix(0.9938031698477624,0.1111542153970758,-0.1111542153970758,0.9938031698477624,184.28668307663378,-386.008360279172)"
        fill="none" stroke="hsl(162, 100%, 58%)"></use>
    <use xlink:href="#bbburst-shape-10" width="44.82928890438589" opacity="0.07622021495811682"
        transform="matrix(0.9650274263448168,0.26214893934994155,-0.26214893934994155,0.9650274263448168,645.6161389361455,340.9770242655361)"
        fill="none" stroke="hsl(206, 75%, 49%)"></use>
    <use xlink:href="#bbburst-shape-1" width="44.6055909022477" opacity="0.45370252115337084"
        transform="matrix(0.8529754816070171,-0.5219509821595101,0.5219509821595101,0.8529754816070171,122.35030034715999,89.84908224958883)"
        fill="hsl(162, 100%, 58%)"></use>
    <use xlink:href="#bbburst-shape-5" width="13.818562369152664" opacity="0.8232793508916546"
        transform="matrix(0.7162973612819448,-0.6977951635118453,0.6977951635118453,0.7162973612819448,-238.26239929860492,-111.01635724597381)"
        fill="hsl(162, 100%, 58%)"></use>
    <use xlink:href="#bbburst-shape-5" width="30.943207164417878" opacity="0.49043485436036216"
        transform="matrix(0.8100301748182117,-0.5863881955530631,0.5863881955530631,0.8100301748182117,-74.83393605606202,164.62808261848159)"
        fill="hsl(162, 100%, 58%)"></use>
    <use xlink:href="#bbburst-shape-3" width="18.766636331445017" opacity="0.8022640398668048"
        transform="matrix(0.8486846050832212,0.5288992731085351,-0.5288992731085351,0.8486846050832212,222.22748808636058,-147.6240504580591)"
        fill="hsl(162, 100%, 58%)"></use>
    <use xlink:href="#bbburst-shape-3" width="14.93954718081311" opacity="0.8507764345492004"
        transform="matrix(0.9553134358398234,-0.2955947213735582,0.2955947213735582,0.9553134358398234,-37.09859098265669,-259.62775839254516)"
        fill="hsl(206, 75%, 49%)"></use>
    <use xlink:href="#bbburst-shape-1" width="27.3885833705228" opacity="0.6661712681647003"
        transform="matrix(0.8498341975954959,0.5270501272148785,-0.5270501272148785,0.8498341975954959,324.42226770563525,-37.68326123119397)"
        fill="hsl(206, 75%, 49%)"></use>
    <use xlink:href="#bbburst-shape-3" width="42.041468651208994" opacity="0.27961944137142447"
        transform="matrix(0.8750186124408444,0.48408927676834496,-0.48408927676834496,0.8750186124408444,826.2507538190454,-52.11638519458194)"
        fill="hsl(162, 100%, 58%)"></use>
    <use xlink:href="#bbburst-shape-3" width="16.003771233477075" opacity="0.8877750591040576"
        transform="matrix(0.9843580358063061,-0.17617961670849164,0.17617961670849164,0.9843580358063061,-16.342502521880313,-298.8228231127107)"
        fill="hsl(162, 100%, 58%)"></use>
    <use xlink:href="#bbburst-shape-13" width="30.618618833701003" opacity="0.6917555348114184"
        transform="matrix(0.7821235745374671,0.6231233538816654,-0.6231233538816654,0.7821235745374671,477.4220700595757,-129.14224769061937)"
        fill="none" stroke="hsl(206, 75%, 49%)"></use>
    <use xlink:href="#bbburst-shape-11" width="11.976299960704678" opacity="0.8570440079762769"
        transform="matrix(0.888208886356946,0.45943984828979945,-0.45943984828979945,0.888208886356946,315.46696146686327,-317.1332072494362)"
        fill="none" stroke="hsl(206, 75%, 49%)"></use>
    <use xlink:href="#bbburst-shape-1" width="38.67641498280354" opacity="0.25739618910323536"
        transform="matrix(0.9965774676994885,-0.08266408454507217,0.08266408454507217,0.9965774676994885,250.53827567879117,281.05050376949924)"
        fill="hsl(206, 75%, 49%)"></use>
    <use xlink:href="#bbburst-shape-10" width="47.147349256020775" opacity="0.3140931940188464"
        transform="matrix(0.955266038318547,-0.29574785888521377,0.29574785888521377,0.955266038318547,318.8951812780371,133.91524814415845)"
        fill="none" stroke="hsl(206, 75%, 49%)"></use>
    <use xlink:href="#bbburst-shape-1" width="17.786461006046896" opacity="0.7188635212675714"
        transform="matrix(0.986722248775775,-0.16241675951353574,0.16241675951353574,0.986722248775775,51.368051133032296,-141.4557937885833)"
        fill="hsl(162, 100%, 58%)"></use>
    <use xlink:href="#bbburst-shape-10" width="43.411795789753114" opacity="0.5053631233462743"
        transform="matrix(0.9804253883972915,0.19689097944299055,-0.19689097944299055,0.9804253883972915,299.3335108421616,35.03069251705756)"
        fill="none" stroke="hsl(162, 100%, 58%)"></use>
    <use xlink:href="#bbburst-shape-3" width="16.459527840975092" opacity="0.77092137165238"
        transform="matrix(0.8018083820689798,0.5975812233026778,-0.5975812233026778,0.8018083820689798,297.2472914367342,-105.97517827493002)"
        fill="hsl(206, 75%, 49%)"></use>
    <use xlink:href="#bbburst-shape-5" width="36.96738356563552" opacity="0.31353741281274194"
        transform="matrix(0.9841417433718209,0.17738384637016144,-0.17738384637016144,0.9841417433718209,213.66329969936373,270.40405946207477)"
        fill="hsl(162, 100%, 58%)"></use>
    <use xlink:href="#bbburst-shape-10" width="23.14421475605003" opacity="0.7309814087621438"
        transform="matrix(0.9798938676307258,0.19951944311193698,-0.19951944311193698,0.9798938676307258,315.6051743328778,-287.99133423870586)"
        fill="none" stroke="hsl(206, 75%, 49%)"></use>
    <use xlink:href="#bbburst-shape-13" width="58.129853361870914" opacity="0.08770730411950334"
        transform="matrix(0.8565635492573815,-0.5160415546093137,0.5160415546093137,0.8565635492573815,496.9420305480272,221.84864915845787)"
        fill="none" stroke="hsl(162, 100%, 58%)"></use>
    <use xlink:href="#bbburst-shape-10" width="17.436583023862003" opacity="0.7430873568942402"
        transform="matrix(0.8609385273631968,-0.5087090053278889,0.5087090053278889,0.8609385273631968,6.417243889813818,-203.05204225073248)"
        fill="none" stroke="hsl(206, 75%, 49%)"></use>
    <use xlink:href="#bbburst-shape-5" width="25.08489116286656" opacity="0.6944374266328519"
        transform="matrix(0.9273598346958243,0.37417073241093235,-0.37417073241093235,0.9273598346958243,164.25445574957558,-71.20119887334386)"
        fill="hsl(162, 100%, 58%)"></use>
    <use xlink:href="#bbburst-shape-10" width="12.167173242599285" opacity="0.8760764165617537"
        transform="matrix(0.9319354363100225,0.36262424429379775,-0.36262424429379775,0.9319354363100225,232.3450122066629,-293.0376114237786)"
        fill="none" stroke="hsl(206, 75%, 49%)"></use>
    <use xlink:href="#bbburst-shape-11" width="33.58920653989075" opacity="0.5154000789694146"
        transform="matrix(0.7501581120854904,-0.6612585023062711,0.6612585023062711,0.7501581120854904,205.12189851043036,-244.3261750235485)"
        fill="none" stroke="hsl(206, 75%, 49%)"></use>
    <use xlink:href="#bbburst-shape-10" width="42.62175714187253" opacity="0.390798141815354"
        transform="matrix(0.906025143835212,-0.42322386362111414,0.42322386362111414,0.906025143835212,272.70426948407567,44.512912641659454)"
        fill="none" stroke="hsl(162, 100%, 58%)"></use>
    <use xlink:href="#bbburst-shape-3" width="10.19805837723981" opacity="0.9131268925941368"
        transform="matrix(0.9732207112086684,-0.22987267622423888,0.22987267622423888,0.9732207112086684,-11.327370821034663,-373.417216307921)"
        fill="hsl(162, 100%, 58%)"></use>
    <use xlink:href="#bbburst-shape-5" width="11.867674220871418" opacity="0.9074751880927762"
        transform="matrix(0.80692670047338,-0.5906515894020299,0.5906515894020299,0.80692670047338,-159.28846986715814,-275.9520298427155)"
        fill="hsl(206, 75%, 49%)"></use>
    <use xlink:href="#bbburst-shape-5" width="10.175534889639327" opacity="0.8322457042912413"
        transform="matrix(0.8206521183759701,-0.571428123743514,0.571428123743514,0.8206521183759701,-155.34169707539243,-176.52481414777557)"
        fill="hsl(162, 100%, 58%)"></use>
    <use xlink:href="#bbburst-shape-10" width="16.517283081955437" opacity="0.8660135213954082"
        transform="matrix(0.9334808552234121,0.3586272339510306,-0.3586272339510306,0.9334808552234121,183.11717182823102,-251.02283048181357)"
        fill="none" stroke="hsl(162, 100%, 58%)"></use>
    <use xlink:href="#bbburst-shape-10" width="34.57618115064338" opacity="0.5206277298494468"
        transform="matrix(0.8051634236041976,-0.5930530004055012,0.5930530004055012,0.8051634236041976,104.46671713540644,9.654283427348389)"
        fill="none" stroke="hsl(206, 75%, 49%)"></use>
    <use xlink:href="#bbburst-shape-5" width="27.47155630372085" opacity="0.6699571819570231"
        transform="matrix(0.7686980887385405,-0.6396117950520572,0.6396117950520572,0.7686980887385405,-80.67867413754149,-25.866627309416515)"
        fill="hsl(162, 100%, 58%)"></use>
    <use xlink:href="#bbburst-shape-1" width="58.32448459997391" opacity="0.24763009756129195"
        transform="matrix(0.86784140165199,0.4968413243468276,-0.4968413243468276,0.86784140165199,596.4534779563194,260.5960552697721)"
        fill="hsl(162, 100%, 58%)"></use>
    <use xlink:href="#bbburst-shape-3" width="48.287956920685815" opacity="0.24743853537129645"
        transform="matrix(0.9902590631720286,-0.13923716388111443,0.13923716388111443,0.9902590631720286,521.6094332364679,59.69074512215002)"
        fill="hsl(206, 75%, 49%)"></use>
    <use xlink:href="#bbburst-shape-13" width="12.690649965294151" opacity="0.8864496353157045"
        transform="matrix(0.9821556351778334,-0.18806995583672184,0.18806995583672184,0.9821556351778334,31.144756774391936,-377.0455654149128)"
        fill="none" stroke="hsl(206, 75%, 49%)"></use>
    <use xlink:href="#bbburst-shape-13" width="36.12473720022513" opacity="0.5656805642553898"
        transform="matrix(0.7540937363302803,0.6567668055158069,-0.6567668055158069,0.7540937363302803,634.1625583515472,-112.62857174104192)"
        fill="none" stroke="hsl(162, 100%, 58%)"></use>
    <use xlink:href="#bbburst-shape-11" width="16.144723976873593" opacity="0.8314914867419569"
        transform="matrix(0.9220533944221643,0.38706270530052966,-0.38706270530052966,0.9220533944221643,268.9615865419841,-255.37689761340823)"
        fill="none" stroke="hsl(206, 75%, 49%)"></use>
    <use xlink:href="#bbburst-shape-1" width="21.405475258703888" opacity="0.6456285140282084"
        transform="matrix(0.8402508043380702,0.5421979212512955,-0.5421979212512955,0.8402508043380702,287.7543870706277,3.370235805420009)"
        fill="hsl(162, 100%, 58%)"></use>
    <use xlink:href="#bbburst-shape-3" width="33.42796735082265" opacity="0.6009807511089844"
        transform="matrix(0.9253203673739906,0.37918625729694255,-0.37918625729694255,0.9253203673739906,455.4025793893118,-137.23147434369886)"
        fill="hsl(206, 75%, 49%)"></use>
    <use xlink:href="#bbburst-shape-13" width="29.978145841029495" opacity="0.6627160074299331"
        transform="matrix(0.9676013553458136,0.25248290463503553,-0.25248290463503553,0.9676013553458136,382.0857867066222,-228.3951358978284)"
        fill="none" stroke="hsl(206, 75%, 49%)"></use>
    <use xlink:href="#bbburst-shape-5" width="25.683538826925837" opacity="0.4875988585438189"
        transform="matrix(0.7700702297749262,-0.6379591218991953,0.6379591218991953,0.7700702297749262,-209.29678728530365,209.52085438901003)"
        fill="hsl(206, 75%, 49%)"></use>
    <use xlink:href="#bbburst-shape-10" width="35.085616294105655" opacity="0.4184535635038087"
        transform="matrix(0.7242056233820534,0.6895840884633371,-0.6895840884633371,0.7242056233820534,415.18934208811964,259.53497418548)"
        fill="none" stroke="hsl(162, 100%, 58%)"></use>
    <use xlink:href="#bbburst-shape-13" width="37.11334853121294" opacity="0.4525407251580993"
        transform="matrix(0.9697450409861533,-0.24411996125422405,0.24411996125422405,0.9697450409861533,386.1548854390869,-164.48367347875242)"
        fill="none" stroke="hsl(206, 75%, 49%)"></use>
    <use xlink:href="#bbburst-shape-10" width="32.037334655879725" opacity="0.3646453273915634"
        transform="matrix(0.978534489655668,-0.206083120498311,0.206083120498311,0.978534489655668,154.66986286474062,194.79293330555157)"
        fill="none" stroke="hsl(206, 75%, 49%)"></use>
    <use xlink:href="#bbburst-shape-3" width="20.655456870156712" opacity="0.7613816352322352"
        transform="matrix(0.734610714521848,0.6784888341820372,-0.6784888341820372,0.734610714521848,440.3510752544431,-140.4337128132131)"
        fill="hsl(206, 75%, 49%)"></use>
    <use xlink:href="#bbburst-shape-1" width="26.562583489346334" opacity="0.6275253183124164"
        transform="matrix(0.9232268802193109,0.38425528967148675,-0.38425528967148675,0.9232268802193109,171.0637970299993,-3.0687889608290675)"
        fill="hsl(162, 100%, 58%)"></use>
    <use xlink:href="#bbburst-shape-10" width="20.503336210890843" opacity="0.8033762081820782"
        transform="matrix(0.9999280718667286,0.011993793932131529,-0.011993793932131529,0.9999280718667286,155.10186640123288,-286.5912190229511)"
        fill="none" stroke="hsl(206, 75%, 49%)"></use>
    <use xlink:href="#bbburst-shape-1" width="9.197260605890733" opacity="0.9241650868531829"
        transform="matrix(0.755742799017071,-0.6548685530194919,0.6548685530194919,0.755742799017071,-254.3921145611763,-224.2471392886444)"
        fill="hsl(162, 100%, 58%)"></use>
    <use xlink:href="#bbburst-shape-1" width="10.041502385631391" opacity="0.9531502517038996"
        transform="matrix(0.986581833099069,0.1632675307551403,-0.1632675307551403,0.986581833099069,70.97769866386535,-349.8109386377873)"
        fill="hsl(206, 75%, 49%)"></use>
</svg>
