<svg id="visual" viewBox="0 0 900 600" width="900" height="600" xmlns="http://www.w3.org/2000/svg" xmlns:xlink="http://www.w3.org/1999/xlink" version="1.1"><path d="M0 290L25 277.8C50 265.7 100 241.3 150 239.2C200 237 250 257 300 263.5C350 270 400 263 450 246C500 229 550 202 600 226.8C650 251.7 700 328.3 750 344C800 359.7 850 314.3 875 291.7L900 269L900 0L875 0C850 0 800 0 750 0C700 0 650 0 600 0C550 0 500 0 450 0C400 0 350 0 300 0C250 0 200 0 150 0C100 0 50 0 25 0L0 0Z" fill="#c62368"></path><path d="M0 266L25 251.5C50 237 100 208 150 198C200 188 250 197 300 216.7C350 236.3 400 266.7 450 264.7C500 262.7 550 228.3 600 225.7C650 223 700 252 750 259.3C800 266.7 850 252.3 875 245.2L900 238L900 0L875 0C850 0 800 0 750 0C700 0 650 0 600 0C550 0 500 0 450 0C400 0 350 0 300 0C250 0 200 0 150 0C100 0 50 0 25 0L0 0Z" fill="#d53867"></path><path d="M0 203L25 209.7C50 216.3 100 229.7 150 233.8C200 238 250 233 300 214.3C350 195.7 400 163.3 450 150.2C500 137 550 143 600 164.8C650 186.7 700 224.3 750 231C800 237.7 850 213.3 875 201.2L900 189L900 0L875 0C850 0 800 0 750 0C700 0 650 0 600 0C550 0 500 0 450 0C400 0 350 0 300 0C250 0 200 0 150 0C100 0 50 0 25 0L0 0Z" fill="#e34c67"></path><path d="M0 56L25 77.5C50 99 100 142 150 147.8C200 153.7 250 122.3 300 105.7C350 89 400 87 450 83.7C500 80.3 550 75.7 600 84.7C650 93.7 700 116.3 750 118.2C800 120 850 101 875 91.5L900 82L900 0L875 0C850 0 800 0 750 0C700 0 650 0 600 0C550 0 500 0 450 0C400 0 350 0 300 0C250 0 200 0 150 0C100 0 50 0 25 0L0 0Z" fill="#ef5f67"></path><path d="M0 80L25 74.8C50 69.7 100 59.3 150 65.2C200 71 250 93 300 105.8C350 118.7 400 122.3 450 110C500 97.7 550 69.3 600 68.3C650 67.3 700 93.7 750 102.2C800 110.7 850 101.3 875 96.7L900 92L900 0L875 0C850 0 800 0 750 0C700 0 650 0 600 0C550 0 500 0 450 0C400 0 350 0 300 0C250 0 200 0 150 0C100 0 50 0 25 0L0 0Z" fill="#fa7268"></path></svg>