<svg id="visual" viewBox="0 0 900 600" width="900" height="600" xmlns="http://www.w3.org/2000/svg" xmlns:xlink="http://www.w3.org/1999/xlink" version="1.1"><path d="M0 282L21.5 286.5C43 291 86 300 128.8 309.5C171.7 319 214.3 329 257.2 317.3C300 305.7 343 272.3 385.8 249.3C428.7 226.3 471.3 213.7 514.2 207.8C557 202 600 203 642.8 208.2C685.7 213.3 728.3 222.7 771.2 258C814 293.3 857 354.7 878.5 385.3L900 416L900 601L878.5 601C857 601 814 601 771.2 601C728.3 601 685.7 601 642.8 601C600 601 557 601 514.2 601C471.3 601 428.7 601 385.8 601C343 601 300 601 257.2 601C214.3 601 171.7 601 128.8 601C86 601 43 601 21.5 601L0 601Z" fill="#c62368"></path><path d="M0 338L21.5 330.7C43 323.3 86 308.7 128.8 306.5C171.7 304.3 214.3 314.7 257.2 334.8C300 355 343 385 385.8 408.7C428.7 432.3 471.3 449.7 514.2 447C557 444.3 600 421.7 642.8 411.2C685.7 400.7 728.3 402.3 771.2 403.2C814 404 857 404 878.5 404L900 404L900 601L878.5 601C857 601 814 601 771.2 601C728.3 601 685.7 601 642.8 601C600 601 557 601 514.2 601C471.3 601 428.7 601 385.8 601C343 601 300 601 257.2 601C214.3 601 171.7 601 128.8 601C86 601 43 601 21.5 601L0 601Z" fill="#da3f67"></path><path d="M0 405L21.5 426.8C43 448.7 86 492.3 128.8 490.2C171.7 488 214.3 440 257.2 419C300 398 343 404 385.8 402.8C428.7 401.7 471.3 393.3 514.2 407.8C557 422.3 600 459.7 642.8 461.2C685.7 462.7 728.3 428.3 771.2 433.8C814 439.3 857 484.7 878.5 507.3L900 530L900 601L878.5 601C857 601 814 601 771.2 601C728.3 601 685.7 601 642.8 601C600 601 557 601 514.2 601C471.3 601 428.7 601 385.8 601C343 601 300 601 257.2 601C214.3 601 171.7 601 128.8 601C86 601 43 601 21.5 601L0 601Z" fill="#eb5967"></path><path d="M0 548L21.5 536.8C43 525.7 86 503.3 128.8 506.2C171.7 509 214.3 537 257.2 534.3C300 531.7 343 498.3 385.8 491.8C428.7 485.3 471.3 505.7 514.2 503.3C557 501 600 476 642.8 469.8C685.7 463.7 728.3 476.3 771.2 475.5C814 474.7 857 460.3 878.5 453.2L900 446L900 601L878.5 601C857 601 814 601 771.2 601C728.3 601 685.7 601 642.8 601C600 601 557 601 514.2 601C471.3 601 428.7 601 385.8 601C343 601 300 601 257.2 601C214.3 601 171.7 601 128.8 601C86 601 43 601 21.5 601L0 601Z" fill="#fa7268"></path></svg>