<svg xmlns="http://www.w3.org/2000/svg" viewBox="0 0 512 512">
  <rect width="512" height="512" rx="96" ry="96" fill="#0a0e1a"/>
  <g transform="translate(0,512) scale(0.05,-0.05)" fill="#ffffff" stroke="none">
    <path d="M3558 5493 l-3 -1528 -22 -78 c-65 -228 -198 -354 -415 -394 -210 -38 -413 19 -534 149 -84 91 -124 184 -145 334 l-12 84 -429 0 -428 0 6 -82 c17 -228 58 -388 144 -563 69 -141 129 -223 238 -327 183 -175 425 -293 702 -343 125 -23 435 -31 571 -15 424 48 740 212 949 491 107 143 182 317 232 534 l22 100 3 1583 4 1582 -440 0 -441 0 -2 -1527z"/>
    <path d="M5180 4905 l0 -2115 445 0 445 0 0 650 0 650 193 239 c105 132 194 240 197 240 3 1 276 -400 608 -889 l604 -890 529 0 530 0 -44 63 c-104 146 -1569 2282 -1573 2292 -3 6 335 429 750 940 l755 930 -482 3 c-265 1 -487 0 -494 -2 -6 -3 -359 -438 -783 -968 -425 -530 -776 -964 -781 -966 -5 -2 -10 407 -11 965 l-3 968 -442 3 -443 2 0 -2115z"/>
  </g>
</svg>