<svg xmlns="http://www.w3.org/2000/svg" version="1.1" xmlns:xlink="http://www.w3.org/1999/xlink"
    xmlns:svgjs="http://svgjs.dev/svgjs" viewBox="0 0 800 800" opacity="50%">
    <defs>
        <symbol id="bbburst-shape-1" viewBox="0 0 194 167">
            <path d="m97 0 96.129 166.5H.871L97 0Z"></path>
        </symbol>
        <symbol id="bbburst-shape-3" viewBox="0 0 131 127">
            <path d="m66 0 66 63.5L66 127 0 63.5 66 0Z"></path>
        </symbol>
        <symbol id="bbburst-shape-5" viewBox="0 0 145 145">
            <circle cx="72.5" cy="72.5" r="72.5"></circle>
        </symbol>
        <symbol id="bbburst-shape-10" viewBox="0 0 145 145">
            <circle cx="72.5" cy="72.5" r="61.5" fill="none" stroke-width="22"></circle>
        </symbol>
        <symbol id="bbburst-shape-11" viewBox="0 0 194 167">
            <path d="M10.398 161 97 11l86.603 150H10.397Z" stroke-width="11"></path>
        </symbol>
        <symbol id="bbburst-shape-13" viewBox="0 0 159 159">
            <path stroke-width="22" d="M11 11h137v137H11z"></path>
        </symbol>
    </defs>
    <use xlink:href="#bbburst-shape-11" width="21.27971232656219" opacity="0.4398970277027452"
        transform="matrix(0.9915634819598184,0.12962199367283692,-0.12962199367283692,0.9915634819598184,691.5191969453829,-28.851821517274857)"
        fill="none" stroke="hsl(162, 100%, 58%)"></use>
    <use xlink:href="#bbburst-shape-1" width="24.721696162874096" opacity="0.4155135185823162"
        transform="matrix(0.7107303240355888,0.7034645737322291,-0.7034645737322291,0.7107303240355888,689.0492283799595,-155.46758271994008)"
        fill="hsl(162, 100%, 58%)"></use>
    <use xlink:href="#bbburst-shape-10" width="12.460716893508396" opacity="0.8207686694548615"
        transform="matrix(0.9045601898345438,-0.4263459428287012,0.4263459428287012,0.9045601898345438,297.96225144336495,72.59515035094876)"
        fill="none" stroke="hsl(162, 100%, 58%)"></use>
    <use xlink:href="#bbburst-shape-10" width="9.373642509556268" opacity="0.8251516008617136"
        transform="matrix(0.9843080162366058,0.17645885971624595,-0.17645885971624595,0.9843080162366058,452.4613548184159,82.96319155790599)"
        fill="none" stroke="hsl(206, 75%, 49%)"></use>
    <use xlink:href="#bbburst-shape-3" width="22.322251509428803" opacity="0.5099590661574103"
        transform="matrix(0.9983791156161391,-0.05691345624310648,0.05691345624310648,0.9983791156161391,569.9108803093533,85.26089528955333)"
        fill="hsl(206, 75%, 49%)"></use>
    <use xlink:href="#bbburst-shape-11" width="9.63036526005043" opacity="0.8105298264424842"
        transform="matrix(0.8347136499662735,0.5506842312614203,-0.5506842312614203,0.8347136499662735,609.947869694881,-21.66363186221571)"
        fill="none" stroke="hsl(162, 100%, 58%)"></use>
    <use xlink:href="#bbburst-shape-3" width="35.5775828324319" opacity="0.17975000824174125"
        transform="matrix(0.8169644852308591,0.5766879831169343,-0.5766879831169343,0.8169644852308591,304.5644621990355,260.9489060913945)"
        fill="hsl(206, 75%, 49%)"></use>
    <use xlink:href="#bbburst-shape-13" width="23.327849755800838" opacity="0.4505186253889252"
        transform="matrix(0.9676520420190976,0.2522885759923951,-0.2522885759923951,0.9676520420190976,303.6270466460769,172.9201655917788)"
        fill="none" stroke="hsl(162, 100%, 58%)"></use>
    <use xlink:href="#bbburst-shape-13" width="8.603639088250578" opacity="0.9640095666093593"
        transform="matrix(0.9916934937492272,-0.12862353771939058,0.12862353771939058,0.9916934937492272,331.1922746618288,-5.657927952455623)"
        fill="none" stroke="hsl(162, 100%, 58%)"></use>
    <use xlink:href="#bbburst-shape-3" width="14.400285652098775" opacity="0.815337090364448"
        transform="matrix(0.8736870994221656,-0.4864882858849562,0.4864882858849562,0.8736870994221656,117.42163355076744,69.53139867117062)"
        fill="hsl(162, 100%, 58%)"></use>
    <use xlink:href="#bbburst-shape-3" width="28.462377327872574" opacity="0.3244719034217106"
        transform="matrix(0.9999725440530407,-0.00741020513141668,0.00741020513141668,0.9999725440530407,413.9108369934236,302.4980482387925)"
        fill="hsl(206, 75%, 49%)"></use>
    <use xlink:href="#bbburst-shape-11" width="17.06673907223395" opacity="0.7031403128023992"
        transform="matrix(0.9965817092519682,-0.08261293351785468,0.08261293351785468,0.9965817092519682,302.09543108255286,-119.27321502276669)"
        fill="none" stroke="hsl(206, 75%, 49%)"></use>
    <use xlink:href="#bbburst-shape-10" width="13.260905907718401" opacity="0.6951066049887347"
        transform="matrix(0.8901584970086887,-0.45565101799867896,0.45565101799867896,0.8901584970086887,302.8095171079904,-55.74801108554783)"
        fill="none" stroke="hsl(206, 75%, 49%)"></use>
    <use xlink:href="#bbburst-shape-13" width="25.353183258225265" opacity="0.09261159420899145"
        transform="matrix(0.7879832783789681,0.6156966403961724,-0.6156966403961724,0.7879832783789681,814.4124575569589,-290.42363683919456)"
        fill="none" stroke="hsl(162, 100%, 58%)"></use>
    <use xlink:href="#bbburst-shape-1" width="8.557604791569744" opacity="0.9001182433217695"
        transform="matrix(0.9909897396280273,-0.13393780628326943,0.13393780628326943,0.9909897396280273,335.1341090097663,-40.2020114915336)"
        fill="hsl(162, 100%, 58%)"></use>
    <use xlink:href="#bbburst-shape-10" width="32.16240137496162" opacity="0.35669495245340055"
        transform="matrix(0.8617445112354684,-0.5073424852656672,0.5073424852656672,0.8617445112354684,373.61399481180405,281.51439898105195)"
        fill="none" stroke="hsl(206, 75%, 49%)"></use>
    <use xlink:href="#bbburst-shape-1" width="8.923602259445826" opacity="0.8705806713609727"
        transform="matrix(0.9427456963565871,0.33351244654605267,-0.33351244654605267,0.9427456963565871,494.3522811563749,-25.241823398553322)"
        fill="hsl(162, 100%, 58%)"></use>
    <use xlink:href="#bbburst-shape-5" width="13.110338048124639" opacity="0.6849583036582336"
        transform="matrix(0.9766859412587648,-0.21467317519308396,0.21467317519308396,0.9766859412587648,169.61337270834255,-21.245584880245758)"
        fill="hsl(162, 100%, 58%)"></use>
    <use xlink:href="#bbburst-shape-5" width="31.292052610512926" opacity="0.28984431195016247"
        transform="matrix(0.9364040793080527,-0.35092363878091515,0.35092363878091515,0.9364040793080527,240.7588895040425,-288.61324979825247)"
        fill="hsl(162, 100%, 58%)"></use>
    <use xlink:href="#bbburst-shape-11" width="27.324526248420927" opacity="0.5415701900650141"
        transform="matrix(0.8288477457645358,-0.5594742302743241,0.5594742302743241,0.8288477457645358,2.269408899818842,-51.37502007942015)"
        fill="none" stroke="hsl(162, 100%, 58%)"></use>
    <use xlink:href="#bbburst-shape-13" width="15.824019499564209" opacity="0.7020990824054127"
        transform="matrix(0.7193791302828072,-0.6946176408021552,0.6946176408021552,0.7193791302828072,65.42371767222704,241.703944964662)"
        fill="none" stroke="hsl(162, 100%, 58%)"></use>
    <use xlink:href="#bbburst-shape-13" width="14.333662397247934" opacity="0.7224891473621489"
        transform="matrix(0.8001198773958955,-0.5998401301980195,0.5998401301980195,0.8001198773958955,273.83296926897674,120.49921651802964)"
        fill="none" stroke="hsl(206, 75%, 49%)"></use>
    <use xlink:href="#bbburst-shape-1" width="7.238339586878704" opacity="0.920307239662764"
        transform="matrix(0.8480643219293259,-0.5298932966839198,0.5298932966839198,0.8480643219293259,220.83231650560097,63.4462701615509)"
        fill="hsl(162, 100%, 58%)"></use>
    <use xlink:href="#bbburst-shape-1" width="6.816039137024105" opacity="0.897241431579842"
        transform="matrix(0.9649100967385409,0.26258047378283783,-0.26258047378283783,0.9649100967385409,543.5707112261321,32.86188833948529)"
        fill="hsl(206, 75%, 49%)"></use>
    <use xlink:href="#bbburst-shape-5" width="9.344716917686167" opacity="0.8887183698455615"
        transform="matrix(0.7541328012433228,-0.6567219488405264,0.6567219488405264,0.7541328012433228,154.89472821256084,146.82644387631296)"
        fill="hsl(206, 75%, 49%)"></use>
    <use xlink:href="#bbburst-shape-11" width="23.284414492429917" opacity="0.6317779761509106"
        transform="matrix(0.9759993201440497,-0.21777356836483358,0.21777356836483358,0.9759993201440497,464.9364151492801,38.91161480673878)"
        fill="none" stroke="hsl(162, 100%, 58%)"></use>
    <use xlink:href="#bbburst-shape-5" width="9.995335154957719" opacity="0.864215481111021"
        transform="matrix(0.7728961802342029,0.6345325008062066,-0.6345325008062066,0.7728961802342029,710.8651057270985,92.46300472564894)"
        fill="hsl(162, 100%, 58%)"></use>
    <use xlink:href="#bbburst-shape-11" width="18.589098323008905" opacity="0.7284302385209684"
        transform="matrix(0.7124474659856024,0.7017254507360368,-0.7017254507360368,0.7124474659856024,743.316984198227,209.136237463977)"
        fill="none" stroke="hsl(206, 75%, 49%)"></use>
    <use xlink:href="#bbburst-shape-13" width="20.516933669085144" opacity="0.7192279865636441"
        transform="matrix(0.7520893197799277,-0.6590611922067371,0.6590611922067371,0.7520893197799277,123.34916836054697,232.16094706632623)"
        fill="none" stroke="hsl(162, 100%, 58%)"></use>
    <use xlink:href="#bbburst-shape-11" width="15.576398106771993" opacity="0.7374666216390696"
        transform="matrix(0.7307331873657276,-0.6826631738143816,0.6826631738143816,0.7307331873657276,9.589950157260489,151.87804939623823)"
        fill="none" stroke="hsl(206, 75%, 49%)"></use>
    <use xlink:href="#bbburst-shape-13" width="25.73335607725901" opacity="0.41722912810906043"
        transform="matrix(0.9808148296537551,0.19494170906010672,-0.19494170906010672,0.9808148296537551,341.5486437421103,-226.01585874175873)"
        fill="none" stroke="hsl(162, 100%, 58%)"></use>
    <use xlink:href="#bbburst-shape-11" width="23.2097681073361" opacity="0.1668274633411111"
        transform="matrix(0.8572852094729411,-0.514841790862917,0.514841790862917,0.8572852094729411,550.7348969177838,140.56887735874267)"
        fill="none" stroke="hsl(206, 75%, 49%)"></use>
    <use xlink:href="#bbburst-shape-3" width="7.604561555928288" opacity="0.9395368623823904"
        transform="matrix(0.8545366589908747,-0.5193910842907429,0.5193910842907429,0.8545366589908747,192.87640344481292,33.24881969209292)"
        fill="hsl(162, 100%, 58%)"></use>
    <use xlink:href="#bbburst-shape-10" width="7.984207405815864" opacity="0.9324337297361855"
        transform="matrix(0.8297416557338139,-0.5581476370460678,0.5581476370460678,0.8297416557338139,144.85147814266082,80.71445615496248)"
        fill="none" stroke="hsl(162, 100%, 58%)"></use>
    <use xlink:href="#bbburst-shape-13" width="17.614840452820854" opacity="0.6780845984097472"
        transform="matrix(0.9999224262867225,0.012455577420343741,-0.012455577420343741,0.9999224262867225,307.49462202241665,114.46685775179424)"
        fill="none" stroke="hsl(206, 75%, 49%)"></use>
    <use xlink:href="#bbburst-shape-5" width="9.921006220026516" opacity="0.883097098538474"
        transform="matrix(0.8491757491242035,0.528110355038933,-0.528110355038933,0.8491757491242035,601.3248287433934,110.00583649921964)"
        fill="hsl(206, 75%, 49%)"></use>
    <use xlink:href="#bbburst-shape-10" width="28.39824862325217" opacity="0.23596355963894355"
        transform="matrix(0.9947618533725416,-0.10221964133583115,0.10221964133583115,0.9947618533725416,657.5256425969086,-139.73477097403588)"
        fill="none" stroke="hsl(162, 100%, 58%)"></use>
    <use xlink:href="#bbburst-shape-10" width="26.049107835680662" opacity="0.48477297785136253"
        transform="matrix(0.7988941292576275,-0.6014716703533901,0.6014716703533901,0.7988941292576275,324.3999723627303,-63.35624359213185)"
        fill="none" stroke="hsl(206, 75%, 49%)"></use>
    <use xlink:href="#bbburst-shape-10" width="24.104079751922995" opacity="0.5171954063830261"
        transform="matrix(0.7843041202820352,0.6203765363943279,-0.6203765363943279,0.7843041202820352,855.4595545632523,93.54250339211347)"
        fill="none" stroke="hsl(206, 75%, 49%)"></use>
    <use xlink:href="#bbburst-shape-11" width="31.14863988283293" opacity="0.5011142447378536"
        transform="matrix(0.7697596003976576,-0.6383338919371573,0.6383338919371573,0.7697596003976576,-76.97508221791665,182.67681179286797)"
        fill="none" stroke="hsl(162, 100%, 58%)"></use>
    <use xlink:href="#bbburst-shape-10" width="11.723862372072086" opacity="0.7233057476377631"
        transform="matrix(0.998956682646218,-0.04566778072627864,0.04566778072627864,0.998956682646218,429.28459973848726,-111.79152473328821)"
        fill="none" stroke="hsl(206, 75%, 49%)"></use>
    <use xlink:href="#bbburst-shape-10" width="13.856507855874577" opacity="0.7256852377553613"
        transform="matrix(0.8261897460116737,0.5633919626558104,-0.5633919626558104,0.8261897460116737,496.30158109805313,70.84241299967096)"
        fill="none" stroke="hsl(206, 75%, 49%)"></use>
    <use xlink:href="#bbburst-shape-3" width="8.55580626005184" opacity="0.8638048215178729"
        transform="matrix(0.8362326380722686,0.548374849006311,-0.548374849006311,0.8362326380722686,657.1754137180639,17.97961116968014)"
        fill="hsl(206, 75%, 49%)"></use>
    <use xlink:href="#bbburst-shape-10" width="13.562189627623633" opacity="0.7758676700460663"
        transform="matrix(0.9988053252400635,0.04886637158712587,-0.04886637158712587,0.9988053252400635,378.1443465921118,94.87488651274043)"
        fill="none" stroke="hsl(206, 75%, 49%)"></use>
    <use xlink:href="#bbburst-shape-11" width="11.5977996098602" opacity="0.8461404600940547"
        transform="matrix(0.9341417850744895,-0.3569021229662919,0.3569021229662919,0.9341417850744895,312.51871224032004,-4.940893520312898)"
        fill="none" stroke="hsl(162, 100%, 58%)"></use>
    <use xlink:href="#bbburst-shape-5" width="26.232237962912702" opacity="-0.08964199877764578"
        transform="matrix(0.7815140399415887,0.6238876544492421,-0.6238876544492421,0.7815140399415887,969.4395458622539,-283.33952849495086)"
        fill="hsl(206, 75%, 49%)"></use>
    <use xlink:href="#bbburst-shape-1" width="31.033562897412942" opacity="0.4045514915146571"
        transform="matrix(0.9915906506702957,-0.12941399268726506,0.12941399268726506,0.9915906506702957,146.48582124521604,-187.11216884942323)"
        fill="hsl(206, 75%, 49%)"></use>
    <use xlink:href="#bbburst-shape-5" width="9.104800891753579" opacity="0.8446841012615669"
        transform="matrix(0.9342971868912278,-0.356495114366436,0.356495114366436,0.9342971868912278,231.9709706952632,-38.70241306055459)"
        fill="hsl(162, 100%, 58%)"></use>
    <use xlink:href="#bbburst-shape-1" width="12.741267727367255" opacity="0.741588552010952"
        transform="matrix(0.90188026080759,-0.4319861052923271,0.4319861052923271,0.90188026080759,317.9868287451648,106.86977315701648)"
        fill="hsl(206, 75%, 49%)"></use>
    <use xlink:href="#bbburst-shape-1" width="25.88607990076882" opacity="0.0917664723333429"
        transform="matrix(0.8357926754694076,0.5490451744908516,-0.5490451744908516,0.8357926754694076,975.966179397079,-120.88273364052299)"
        fill="hsl(206, 75%, 49%)"></use>
    <use xlink:href="#bbburst-shape-1" width="23.723039814779906" opacity="0.36650639719302025"
        transform="matrix(0.8076364905331139,-0.5896806755858254,0.5896806755858254,0.8076364905331139,393.4087527047834,239.59311859246776)"
        fill="hsl(162, 100%, 58%)"></use>
    <use xlink:href="#bbburst-shape-11" width="19.828503437094557" opacity="0.5654951979649743"
        transform="matrix(0.9997586800163785,0.021967742986219334,-0.021967742986219334,0.9997586800163785,296.02852671787815,165.91298883009978)"
        fill="none" stroke="hsl(162, 100%, 58%)"></use>
    <use xlink:href="#bbburst-shape-3" width="25.573765144266282" opacity="0.5144093818842959"
        transform="matrix(0.999994253436608,-0.0033901465692556627,0.0033901465692556627,0.999994253436608,548.1281096422259,146.28407922996172)"
        fill="hsl(206, 75%, 49%)"></use>
    <use xlink:href="#bbburst-shape-13" width="7.951632426029265" opacity="0.9592876461848884"
        transform="matrix(0.7383415686315582,0.6744269627103368,-0.6744269627103368,0.7383415686315582,683.7547999573121,109.00853827971571)"
        fill="none" stroke="hsl(162, 100%, 58%)"></use>
    <use xlink:href="#bbburst-shape-13" width="8.573415230350244" opacity="0.9193058768560772"
        transform="matrix(0.8364248216808227,-0.5480816706260153,0.5480816706260153,0.8364248216808227,155.49935824937134,38.65123681378509)"
        fill="none" stroke="hsl(162, 100%, 58%)"></use>
    <use xlink:href="#bbburst-shape-13" width="26.389930815797726" opacity="0.43094262735090116"
        transform="matrix(0.8831491375255653,-0.469092315954813,0.469092315954813,0.8831491375255653,74.684838141808,275.84812318013496)"
        fill="none" stroke="hsl(162, 100%, 58%)"></use>
    <use xlink:href="#bbburst-shape-1" width="31.7581568692675" opacity="0.23951389926026456"
        transform="matrix(0.859429545102293,0.5112541999878982,-0.5112541999878982,0.859429545102293,327.9211125354744,-170.92245796160415)"
        fill="hsl(162, 100%, 58%)"></use>
    <use xlink:href="#bbburst-shape-13" width="7.827177085087544" opacity="0.861879087031232"
        transform="matrix(0.9976781801618749,-0.06810469021212488,0.06810469021212488,0.9976781801618749,371.46259920221183,-60.90436799275477)"
        fill="none" stroke="hsl(162, 100%, 58%)"></use>
    <use xlink:href="#bbburst-shape-11" width="17.21908243931731" opacity="0.624051060693064"
        transform="matrix(0.9437374767792485,-0.3306955925353974,0.3306955925353974,0.9437374767792485,408.2740716952432,105.72841884997189)"
        fill="none" stroke="hsl(162, 100%, 58%)"></use>
    <use xlink:href="#bbburst-shape-10" width="19.68021169998339" opacity="0.7200266073456694"
        transform="matrix(0.9999808049679791,-0.0061959418648382635,0.0061959418648382635,0.9999808049679791,513.362901488593,-8.71892978500415)"
        fill="none" stroke="hsl(162, 100%, 58%)"></use>
    <use xlink:href="#bbburst-shape-5" width="33.19847707274324" opacity="0.2595877272272181"
        transform="matrix(0.7564932809035021,0.6540014647902977,-0.6540014647902977,0.7564932809035021,471.1063500084068,-195.146362587103)"
        fill="hsl(206, 75%, 49%)"></use>
    <use xlink:href="#bbburst-shape-3" width="8.92464712538698" opacity="0.8910757967942948"
        transform="matrix(0.7351392981102469,0.677916080627959,-0.677916080627959,0.7351392981102469,713.9847060910597,86.30822867137874)"
        fill="hsl(206, 75%, 49%)"></use>
    <use xlink:href="#bbburst-shape-3" width="30.655073778874026" opacity="0.32144636600825993"
        transform="matrix(0.9175878360262216,-0.39753309695761924,0.39753309695761924,0.9175878360262216,406.0826329989171,-208.08202159272875)"
        fill="hsl(206, 75%, 49%)"></use>
    <use xlink:href="#bbburst-shape-3" width="11.355588952593155" opacity="0.8197308250165107"
        transform="matrix(0.8621851388142,-0.5065933146103871,0.5065933146103871,0.8621851388142,127.27703461475494,9.694847357562423)"
        fill="hsl(206, 75%, 49%)"></use>
    <use xlink:href="#bbburst-shape-1" width="24.849686035522566" opacity="0.1742413945123168"
        transform="matrix(0.76048651218274,-0.6493537285548849,0.6493537285548849,0.76048651218274,497.6940108203908,44.81132135022057)"
        fill="hsl(206, 75%, 49%)"></use>
    <use xlink:href="#bbburst-shape-11" width="16.33605587978768" opacity="0.6154611144428109"
        transform="matrix(0.9998085071258243,0.01956908477243314,-0.01956908477243314,0.9998085071258243,407.5328747651324,172.56982106035514)"
        fill="none" stroke="hsl(206, 75%, 49%)"></use>
    <use xlink:href="#bbburst-shape-13" width="6.550584601234566" opacity="0.9102509344744572"
        transform="matrix(0.8110062066643462,0.5850375481555931,-0.5850375481555931,0.8110062066643462,658.3652904008043,43.651991478608295)"
        fill="none" stroke="hsl(206, 75%, 49%)"></use>
    <use xlink:href="#bbburst-shape-10" width="36.574458870566154" opacity="0.15483076283292763"
        transform="matrix(0.8137567874984796,-0.581205549526288,0.581205549526288,0.8137567874984796,-208.2285062267781,205.22797984503882)"
        fill="none" stroke="hsl(206, 75%, 49%)"></use>
    <use xlink:href="#bbburst-shape-5" width="18.94290146391938" opacity="0.47300266127160384"
        transform="matrix(0.9949659553703146,-0.10021351033686567,0.10021351033686567,0.9949659553703146,295.0173197884849,-227.6066071402425)"
        fill="hsl(162, 100%, 58%)"></use>
    <use xlink:href="#bbburst-shape-13" width="14.454085584304309" opacity="0.8096136957351575"
        transform="matrix(0.9978567216522076,-0.06543671028947519,0.06543671028947519,0.9978567216522076,406.9281925734331,76.92620792558267)"
        fill="none" stroke="hsl(206, 75%, 49%)"></use>
    <use xlink:href="#bbburst-shape-5" width="9.873829459057479" opacity="0.871616264672053"
        transform="matrix(0.9879711243823363,0.15463847317760965,-0.15463847317760965,0.9879711243823363,408.33380016129644,35.21601520591696)"
        fill="hsl(162, 100%, 58%)"></use>
    <use xlink:href="#bbburst-shape-10" width="14.071838821087084" opacity="0.7910788674671525"
        transform="matrix(0.8889354481010053,-0.4580324978748396,0.4580324978748396,0.8889354481010053,220.582057131091,141.1243451907839)"
        fill="none" stroke="hsl(206, 75%, 49%)"></use>
    <use xlink:href="#bbburst-shape-10" width="25.05831661064037" opacity="0.5398169295228018"
        transform="matrix(0.9994773497663222,0.03232688206568607,-0.03232688206568607,0.9994773497663222,287.3752443618964,-173.70871951999408)"
        fill="none" stroke="hsl(206, 75%, 49%)"></use>
    <use xlink:href="#bbburst-shape-11" width="14.81740032691604" opacity="0.7109956098151387"
        transform="matrix(0.7885493298371039,-0.614971506993173,0.614971506993173,0.7885493298371039,163.46533320649314,-40.149511857852644)"
        fill="none" stroke="hsl(206, 75%, 49%)"></use>
    <use xlink:href="#bbburst-shape-3" width="13.123635421862357" opacity="0.7912306694767237"
        transform="matrix(0.9941297343308396,-0.10819459930742505,0.10819459930742505,0.9941297343308396,443.5465307936279,13.202761999179017)"
        fill="hsl(206, 75%, 49%)"></use>
    <use xlink:href="#bbburst-shape-11" width="14.913531867277158" opacity="0.7461420674390112"
        transform="matrix(0.9896818112621835,-0.1432826313856776,0.1432826313856776,0.9896818112621835,259.13638227623557,-80.15370593160469)"
        fill="none" stroke="hsl(162, 100%, 58%)"></use>
    <use xlink:href="#bbburst-shape-10" width="17.810048152120043" opacity="0.69631739773992"
        transform="matrix(0.9027245909597593,-0.4302189127369173,0.4302189127369173,0.9027245909597593,347.0106977877358,-7.372200346826105)"
        fill="none" stroke="hsl(162, 100%, 58%)"></use>
    <use xlink:href="#bbburst-shape-5" width="8.865533639059596" opacity="0.7578463007342257"
        transform="matrix(0.9653128330279223,0.2610960252313441,-0.2610960252313441,0.9653128330279223,490.44013695353317,-95.817365188542)"
        fill="hsl(206, 75%, 49%)"></use>
    <use xlink:href="#bbburst-shape-3" width="28.886975810257674" opacity="0.1695039817404017"
        transform="matrix(0.991399944279406,0.13086691897798564,-0.13086691897798564,0.991399944279406,352.8889727316855,-362.38637549073457)"
        fill="hsl(162, 100%, 58%)"></use>
    <use xlink:href="#bbburst-shape-13" width="7.892667141391588" opacity="0.970821204395618"
        transform="matrix(0.8984595346167565,0.43905633426274737,-0.43905633426274737,0.8984595346167565,566.652289714078,50.84104791320601)"
        fill="none" stroke="hsl(162, 100%, 58%)"></use>
    <use xlink:href="#bbburst-shape-13" width="33.713514241833224" opacity="0.1597815248108475"
        transform="matrix(0.9320750621221867,0.36226520474635965,-0.36226520474635965,0.9320750621221867,808.2197678901016,276.21652489745907)"
        fill="none" stroke="hsl(206, 75%, 49%)"></use>
    <use xlink:href="#bbburst-shape-1" width="29.134032378966744" opacity="0.284743279839362"
        transform="matrix(0.9715761219385698,0.236727352198282,-0.236727352198282,0.9715761219385698,802.3439498181571,13.668909096978552)"
        fill="hsl(162, 100%, 58%)"></use>
    <use xlink:href="#bbburst-shape-3" width="34.429256294419275" opacity="-0.09681693529940905"
        transform="matrix(0.9306806510307035,0.3658326472542681,-0.3658326472542681,0.9306806510307035,190.29658133538095,379.26724019446294)"
        fill="hsl(206, 75%, 49%)"></use>
    <use xlink:href="#bbburst-shape-11" width="37.43061246695551" opacity="0.34641477114427044"
        transform="matrix(0.7714128526330876,0.6363349831594066,-0.6363349831594066,0.7714128526330876,750.0456174458616,352.06622275997626)"
        fill="none" stroke="hsl(206, 75%, 49%)"></use>
    <use xlink:href="#bbburst-shape-5" width="21.795748088822474" opacity="0.6153003509067769"
        transform="matrix(0.9542558900087901,-0.2989911309446018,0.2989911309446018,0.9542558900087901,111.94211815128182,-49.0494036563349)"
        fill="hsl(162, 100%, 58%)"></use>
    <use xlink:href="#bbburst-shape-11" width="31.03199921867582" opacity="0.3777331479287741"
        transform="matrix(0.9987794177215278,-0.04939306364102101,0.04939306364102101,0.9987794177215278,636.5375861038293,68.15817451168238)"
        fill="none" stroke="hsl(206, 75%, 49%)"></use>
    <use xlink:href="#bbburst-shape-1" width="6.46637349456792" opacity="0.9319258189686712"
        transform="matrix(0.8879017932401867,-0.460033048335509,0.460033048335509,0.8879017932401867,231.6086040244655,70.75884479359854)"
        fill="hsl(162, 100%, 58%)"></use>
    <use xlink:href="#bbburst-shape-1" width="16.597770746689207" opacity="0.6442668915213954"
        transform="matrix(0.8909972250933824,-0.4540087497790019,0.4540087497790019,0.8909972250933824,113.7993062465874,-79.79415892054254)"
        fill="hsl(206, 75%, 49%)"></use>
    <use xlink:href="#bbburst-shape-3" width="12.605639439172995" opacity="0.6986102993166559"
        transform="matrix(0.7178198291549438,0.696228908385717,-0.696228908385717,0.7178198291549438,649.1937457304093,-24.899616352958788)"
        fill="hsl(206, 75%, 49%)"></use>
    <use xlink:href="#bbburst-shape-11" width="16.15511186164273" opacity="0.6612138056530794"
        transform="matrix(0.8916500343629963,0.4527253209402667,-0.4527253209402667,0.8916500343629963,623.8084464337969,-104.58406784502526)"
        fill="none" stroke="hsl(206, 75%, 49%)"></use>
    <use xlink:href="#bbburst-shape-1" width="28.533049035655672" opacity="0.08490158604169384"
        transform="matrix(0.9915215739413226,0.12994217332691677,-0.12994217332691677,0.9915215739413226,249.2663200852848,367.6608361763376)"
        fill="hsl(162, 100%, 58%)"></use>
    <use xlink:href="#bbburst-shape-10" width="20.054401872210715" opacity="0.6168695141482837"
        transform="matrix(0.9928455585657324,0.11940559801072456,-0.11940559801072456,0.9928455585657324,492.64528328054115,165.11937365407817)"
        fill="none" stroke="hsl(162, 100%, 58%)"></use>
    <use xlink:href="#bbburst-shape-10" width="11.477350173265789" opacity="0.8188837014121413"
        transform="matrix(0.9585136549591897,-0.2850466159363684,0.2850466159363684,0.9585136549591897,360.67003582783786,3.6596142336749153)"
        fill="none" stroke="hsl(162, 100%, 58%)"></use>
    <use xlink:href="#bbburst-shape-10" width="18.81661891504593" opacity="0.6592114997697791"
        transform="matrix(0.9994794106403379,0.03226310130850466,-0.03226310130850466,0.9994794106403379,516.0940792952834,104.02332663535304)"
        fill="none" stroke="hsl(162, 100%, 58%)"></use>
    <use xlink:href="#bbburst-shape-13" width="31.21393921803083" opacity="0.4847998406891979"
        transform="matrix(0.8262594246813244,-0.5632897683477721,0.5632897683477721,0.8262594246813244,197.0670426473397,307.4277226784062)"
        fill="none" stroke="hsl(162, 100%, 58%)"></use>
    <use xlink:href="#bbburst-shape-11" width="9.555385969775852" opacity="0.8779485193689727"
        transform="matrix(0.9576018008835231,-0.28809510746389533,0.28809510746389533,0.9576018008835231,225.32265895718479,21.43782314522491)"
        fill="none" stroke="hsl(206, 75%, 49%)"></use>
    <use xlink:href="#bbburst-shape-10" width="28.986856259344677" opacity="0.38860001276161726"
        transform="matrix(0.9845947674924708,0.17485177673231533,-0.17485177673231533,0.9845947674924708,213.1733461055071,-126.33990276058739)"
        fill="none" stroke="hsl(206, 75%, 49%)"></use>
    <use xlink:href="#bbburst-shape-3" width="22.797061052403002" opacity="0.48828288109979245"
        transform="matrix(0.8192382717515585,0.5734532710670674,-0.5734532710670674,0.8192382717515585,729.9733048318201,268.018055538003)"
        fill="hsl(162, 100%, 58%)"></use>
    <use xlink:href="#bbburst-shape-13" width="17.920940771188462" opacity="0.519789605691447"
        transform="matrix(0.9994107991733188,0.03432279848363686,-0.03432279848363686,0.9994107991733188,443.1011751057734,-212.74046721678582)"
        fill="none" stroke="hsl(206, 75%, 49%)"></use>
    <use xlink:href="#bbburst-shape-10" width="9.293958235388144" opacity="0.8703883795737226"
        transform="matrix(0.810768666208012,-0.5853666969475468,0.5853666969475468,0.810768666208012,109.14136310166347,53.94376053910281)"
        fill="none" stroke="hsl(206, 75%, 49%)"></use>
    <use xlink:href="#bbburst-shape-3" width="17.66813910489772" opacity="0.6313338196054615"
        transform="matrix(0.9995709511429011,-0.029290162704840143,0.029290162704840143,0.9995709511429011,336.23477085519903,160.6218758476545)"
        fill="hsl(206, 75%, 49%)"></use>
    <use xlink:href="#bbburst-shape-1" width="9.007873166367306" opacity="0.8313458910177145"
        transform="matrix(0.7442117209596653,0.6679437958288507,-0.6679437958288507,0.7442117209596653,699.9044437988224,32.54947724256925)"
        fill="hsl(206, 75%, 49%)"></use>
    <use xlink:href="#bbburst-shape-5" width="38.20149983646796" opacity="0.2444598852642007"
        transform="matrix(0.7311394705739591,-0.6822280224154024,0.6822280224154024,0.7311394705739591,221.91777863504302,-201.54803136744215)"
        fill="hsl(162, 100%, 58%)"></use>
    <use xlink:href="#bbburst-shape-5" width="14.850574766527451" opacity="0.7248980300632583"
        transform="matrix(0.7461446791682063,-0.6657838371040367,0.6657838371040367,0.7461446791682063,163.8233783128867,225.02924420006735)"
        fill="hsl(162, 100%, 58%)"></use>
    <use xlink:href="#bbburst-shape-3" width="20.130940101629324" opacity="0.1699190733511029"
        transform="matrix(0.9296553193981226,-0.36843043728060076,0.36843043728060076,0.9296553193981226,284.47699032496627,-339.3740805493237)"
        fill="hsl(162, 100%, 58%)"></use>
    <use xlink:href="#bbburst-shape-5" width="10.950352603874936" opacity="0.7785111281936246"
        transform="matrix(0.9316339786135717,-0.3633980323180727,0.3633980323180727,0.9316339786135717,341.3628356898097,-9.428030411287182)"
        fill="hsl(206, 75%, 49%)"></use>
    <use xlink:href="#bbburst-shape-10" width="30.402658931913724" opacity="0.18785906430541532"
        transform="matrix(0.8061775183860068,0.5916737351353191,-0.5916737351353191,0.8061775183860068,904.0676125402916,-166.74731782232627)"
        fill="none" stroke="hsl(162, 100%, 58%)"></use>
    <use xlink:href="#bbburst-shape-10" width="11.149419178282436" opacity="0.8531520257023926"
        transform="matrix(0.9743369503950287,0.22509444039095095,-0.22509444039095095,0.9743369503950287,450.3274935657134,65.50596731989083)"
        fill="none" stroke="hsl(162, 100%, 58%)"></use>
    <use xlink:href="#bbburst-shape-10" width="10.63344999726129" opacity="0.7312702997922487"
        transform="matrix(0.7547736513504081,-0.6559853163197883,0.6559853163197883,0.7547736513504081,230.06548871492868,28.662358240743004)"
        fill="none" stroke="hsl(206, 75%, 49%)"></use>
    <use xlink:href="#bbburst-shape-3" width="7.268800404152842" opacity="0.8238527164902874"
        transform="matrix(0.8808311958905471,-0.4734304641085411,0.4734304641085411,0.8808311958905471,225.17631074637828,-27.846488819118747)"
        fill="hsl(162, 100%, 58%)"></use>
    <use xlink:href="#bbburst-shape-3" width="15.519510945504454" opacity="0.8057580758367512"
        transform="matrix(0.9688281383212125,-0.24773380551925797,0.24773380551925797,0.9688281383212125,207.4166607282727,-1.6876240297340246)"
        fill="hsl(206, 75%, 49%)"></use>
    <use xlink:href="#bbburst-shape-5" width="8.665387199826268" opacity="0.7748610833462478"
        transform="matrix(0.8102979239593535,0.5860181519604677,-0.5860181519604677,0.8102979239593535,685.5379508316993,-11.97254170389158)"
        fill="hsl(206, 75%, 49%)"></use>
    <use xlink:href="#bbburst-shape-13" width="7.471323664907848" opacity="0.9833416032929477"
        transform="matrix(0.9987732383126698,0.049517859711652124,-0.049517859711652124,0.9987732383126698,420.1735645257795,-5.971593729400013)"
        fill="none" stroke="hsl(162, 100%, 58%)"></use>
    <use xlink:href="#bbburst-shape-3" width="10.875770087964087" opacity="0.8057412704965248"
        transform="matrix(0.9995685924367035,0.029370546711072195,-0.029370546711072195,0.9995685924367035,470.3589777430999,59.46232421967363)"
        fill="hsl(206, 75%, 49%)"></use>
    <use xlink:href="#bbburst-shape-11" width="30.438587198463626" opacity="0.392010044828514"
        transform="matrix(0.8470399381284177,0.531529249632987,-0.531529249632987,0.8470399381284177,550.4987145238583,321.8554615288069)"
        fill="none" stroke="hsl(162, 100%, 58%)"></use>
    <use xlink:href="#bbburst-shape-10" width="26.897000213977524" opacity="0.6051676281326207"
        transform="matrix(0.7219321371473215,-0.6919638641966074,0.6919638641966074,0.7219321371473215,288.0099693122664,87.11955458624533)"
        fill="none" stroke="hsl(206, 75%, 49%)"></use>
    <use xlink:href="#bbburst-shape-5" width="15.323856200416285" opacity="0.6393384966602946"
        transform="matrix(0.8228091996832178,-0.5683177112466782,0.5683177112466782,0.8228091996832178,154.34975441732303,-86.62129939932322)"
        fill="hsl(206, 75%, 49%)"></use>
    <use xlink:href="#bbburst-shape-13" width="27.927947124244778" opacity="0.15789842400051723"
        transform="matrix(0.8575615850890115,0.5143813058224629,-0.5143813058224629,0.8575615850890115,706.3298509905007,411.63761520639474)"
        fill="none" stroke="hsl(162, 100%, 58%)"></use>
    <use xlink:href="#bbburst-shape-5" width="18.567385747440206" opacity="0.6765388888836971"
        transform="matrix(0.8528041665987887,0.5222308430490731,-0.5222308430490731,0.8528041665987887,484.7328458072717,-33.57532552689827)"
        fill="hsl(162, 100%, 58%)"></use>
    <use xlink:href="#bbburst-shape-1" width="32.931903091778516" opacity="0.3513600571085467"
        transform="matrix(0.9999256354189167,-0.01219522989023639,0.01219522989023639,0.9999256354189167,91.97132514280025,55.13200377636059)"
        fill="hsl(206, 75%, 49%)"></use>
    <use xlink:href="#bbburst-shape-3" width="24.176981739810643" opacity="0.5447691836933264"
        transform="matrix(0.8720999778113493,-0.48932773138403274,0.48932773138403274,0.8720999778113493,180.92878185601785,-147.33834250173282)"
        fill="hsl(206, 75%, 49%)"></use>
    <use xlink:href="#bbburst-shape-1" width="22.025592030381624" opacity="0.6084402917350762"
        transform="matrix(0.8333966417632958,0.5526753454765835,-0.5526753454765835,0.8333966417632958,435.77244382294066,66.45135646152733)"
        fill="hsl(206, 75%, 49%)"></use>
    <use xlink:href="#bbburst-shape-10" width="14.164620677036773" opacity="0.7814289112346966"
        transform="matrix(0.889944495694881,-0.4560688485112572,0.4560688485112572,0.889944495694881,149.06079238600174,123.43726154829079)"
        fill="none" stroke="hsl(206, 75%, 49%)"></use>
    <use xlink:href="#bbburst-shape-10" width="14.732053988928572" opacity="0.6260806829465962"
        transform="matrix(0.8813091398663794,-0.4725401570110021,0.4725401570110021,0.8813091398663794,291.0615556483691,-93.32876940845935)"
        fill="none" stroke="hsl(162, 100%, 58%)"></use>
    <use xlink:href="#bbburst-shape-13" width="27.38631898151837" opacity="0.17739499645010282"
        transform="matrix(0.9481385483026408,0.3178573472842194,-0.3178573472842194,0.9481385483026408,175.85991061905224,-133.87627672118805)"
        fill="none" stroke="hsl(162, 100%, 58%)"></use>
    <use xlink:href="#bbburst-shape-11" width="9.548842922783475" opacity="0.8485273446180945"
        transform="matrix(0.9818222980403718,-0.18980246328939815,0.18980246328939815,0.9818222980403718,334.1449585759401,74.59814826215904)"
        fill="none" stroke="hsl(162, 100%, 58%)"></use>
    <use xlink:href="#bbburst-shape-10" width="32.68413357969092" opacity="0.4947983255539059"
        transform="matrix(0.9279910420550221,0.3726025038370436,-0.3726025038370436,0.9279910420550221,742.5240383675186,-67.56119038463322)"
        fill="none" stroke="hsl(162, 100%, 58%)"></use>
    <use xlink:href="#bbburst-shape-11" width="33.76434039465463" opacity="0.04263830313527894"
        transform="matrix(0.9322639057921656,-0.3617789517884315,0.3617789517884315,0.9322639057921656,-116.81593504400809,-209.51592339816105)"
        fill="none" stroke="hsl(162, 100%, 58%)"></use>
    <use xlink:href="#bbburst-shape-3" width="7.955504834230559" opacity="0.9440708314282595"
        transform="matrix(0.9420899793823073,0.33536021044161424,-0.33536021044161424,0.9420899793823073,551.8208597863224,8.658813127108829)"
        fill="hsl(206, 75%, 49%)"></use>
    <use xlink:href="#bbburst-shape-10" width="35.30318917788008" opacity="0.015160368519061884"
        transform="matrix(0.9898606699720416,-0.1420417334535913,0.1420417334535913,0.9898606699720416,-34.95675226271195,264.10055627704025)"
        fill="none" stroke="hsl(162, 100%, 58%)"></use>
    <use xlink:href="#bbburst-shape-13" width="42.40200776771782" opacity="-0.009058626310010753"
        transform="matrix(0.7776198874197581,0.6287346902225793,-0.6287346902225793,0.7776198874197581,992.2258153906931,-204.6998529317297)"
        fill="none" stroke="hsl(162, 100%, 58%)"></use>
    <use xlink:href="#bbburst-shape-10" width="42.83419735870386" opacity="-0.08527873496281635"
        transform="matrix(0.7751574027119631,-0.6317681544845731,0.6317681544845731,0.7751574027119631,479.628816208082,445.15912303587754)"
        fill="none" stroke="hsl(162, 100%, 58%)"></use>
    <use xlink:href="#bbburst-shape-11" width="45.72154579742908" opacity="0.10301460838117837"
        transform="matrix(0.9168724168293858,0.3991803743390211,-0.3991803743390211,0.9168724168293858,278.5077867160546,331.96724014407556)"
        fill="none" stroke="hsl(206, 75%, 49%)"></use>
    <use xlink:href="#bbburst-shape-13" width="33.09670959934548" opacity="-0.10207811197065175"
        transform="matrix(0.9265319997418154,-0.37621596650651684,0.37621596650651684,0.9265319997418154,-115.48194497068728,-316.07934317126137)"
        fill="none" stroke="hsl(206, 75%, 49%)"></use>
    <use xlink:href="#bbburst-shape-10" width="20.563033347403568" opacity="0.48031246249941506"
        transform="matrix(0.8754300765399057,0.4833447848992837,-0.4833447848992837,0.8754300765399057,715.7056791741695,-148.61642858944046)"
        fill="none" stroke="hsl(162, 100%, 58%)"></use>
    <use xlink:href="#bbburst-shape-11" width="22.596342206987863" opacity="0.5854274550529686"
        transform="matrix(0.9800498495432174,-0.19875183624388712,0.19875183624388712,0.9800498495432174,164.1098084549738,127.00269167145842)"
        fill="none" stroke="hsl(162, 100%, 58%)"></use>
    <use xlink:href="#bbburst-shape-5" width="34.14334943238516" opacity="0.20457721905823"
        transform="matrix(0.800348035131604,-0.599535672550834,0.599535672550834,0.800348035131604,-211.00571129881524,107.26626835136545)"
        fill="hsl(162, 100%, 58%)"></use>
    <use xlink:href="#bbburst-shape-10" width="10.547701120396578" opacity="0.7746535821881466"
        transform="matrix(0.8642913314531065,-0.5029915450333299,0.5029915450333299,0.8642913314531065,157.45515073420484,-37.56062160752174)"
        fill="none" stroke="hsl(162, 100%, 58%)"></use>
    <use xlink:href="#bbburst-shape-1" width="16.413342839419617" opacity="0.5485828160771475"
        transform="matrix(0.9352777832584147,0.35391449270018016,-0.35391449270018016,0.9352777832584147,611.045694564711,-164.90754290517853)"
        fill="hsl(162, 100%, 58%)"></use>
    <use xlink:href="#bbburst-shape-10" width="9.17859294469191" opacity="0.8032049371897949"
        transform="matrix(0.8831491733125848,0.4690922485794219,-0.4690922485794219,0.8831491733125848,648.6128771881557,-15.526596685442144)"
        fill="none" stroke="hsl(162, 100%, 58%)"></use>
    <use xlink:href="#bbburst-shape-5" width="37.02105027133962" opacity="0.22683459462596256"
        transform="matrix(0.799163473124203,0.6011137523165323,-0.6011137523165323,0.799163473124203,941.6088296557544,214.88895193543067)"
        fill="hsl(162, 100%, 58%)"></use>
    <use xlink:href="#bbburst-shape-5" width="35.97187904968217" opacity="0.0574961577528913"
        transform="matrix(0.9461900407550548,-0.32361150593875326,0.32361150593875326,0.9461900407550548,617.0191361124491,245.89516046163686)"
        fill="hsl(206, 75%, 49%)"></use>
    <use xlink:href="#bbburst-shape-1" width="28.032298358476787" opacity="0.3417013055026057"
        transform="matrix(0.9994269487046448,0.03384928659400813,-0.03384928659400813,0.9994269487046448,136.61022451802373,136.2746774855072)"
        fill="hsl(162, 100%, 58%)"></use>
    <use xlink:href="#bbburst-shape-1" width="22.19622621319144" opacity="0.5962707937202376"
        transform="matrix(0.8856475381142107,-0.46435809267443345,0.46435809267443345,0.8856475381142107,329.42930014112505,-80.93193191084617)"
        fill="hsl(162, 100%, 58%)"></use>
    <use xlink:href="#bbburst-shape-11" width="19.8316655863758" opacity="0.6149060485219804"
        transform="matrix(0.9454505988990398,-0.3257655062179651,0.3257655062179651,0.9454505988990398,408.7169268764397,-64.54210376188132)"
        fill="none" stroke="hsl(162, 100%, 58%)"></use>
    <use xlink:href="#bbburst-shape-10" width="23.59825775266942" opacity="0.4770590901418933"
        transform="matrix(0.7179948229364387,-0.6960484424495698,0.6960484424495698,0.7179948229364387,-122.17802850668104,125.1586331281182)"
        fill="none" stroke="hsl(162, 100%, 58%)"></use>
    <use xlink:href="#bbburst-shape-3" width="15.860769315868147" opacity="0.7068577622690904"
        transform="matrix(0.9969348439123518,0.07823628949186417,-0.07823628949186417,0.9969348439123518,316.7985625348461,78.40042384893712)"
        fill="hsl(162, 100%, 58%)"></use>
    <use xlink:href="#bbburst-shape-10" width="14.136938491625909" opacity="0.7563020634908426"
        transform="matrix(0.7700090887726038,0.6380329170251205,-0.6380329170251205,0.7700090887726038,551.4014872707774,39.01207223135782)"
        fill="none" stroke="hsl(162, 100%, 58%)"></use>
    <use xlink:href="#bbburst-shape-5" width="41.03910183696598" opacity="0.0710435646640033"
        transform="matrix(0.897687956201855,0.4406317433981991,-0.4406317433981991,0.897687956201855,288.42247057996633,-287.7534542211333)"
        fill="hsl(162, 100%, 58%)"></use>
    <use xlink:href="#bbburst-shape-13" width="31.124571566776993" opacity="0.18372665927091436"
        transform="matrix(0.9490831628678507,0.3150256338153403,-0.3150256338153403,0.9490831628678507,514.0928632264855,382.7761388765042)"
        fill="none" stroke="hsl(162, 100%, 58%)"></use>
    <use xlink:href="#bbburst-shape-13" width="11.913134748592947" opacity="0.7724756556468888"
        transform="matrix(0.9337198799856744,-0.35800444930131503,0.35800444930131503,0.9337198799856744,273.72647401842244,-71.24083255014614)"
        fill="none" stroke="hsl(206, 75%, 49%)"></use>
    <use xlink:href="#bbburst-shape-10" width="9.536903861666353" opacity="0.8855413718000519"
        transform="matrix(0.7757998457631542,0.6309790799336109,-0.6309790799336109,0.7757998457631542,666.6589204750567,38.4000886939711)"
        fill="none" stroke="hsl(206, 75%, 49%)"></use>
    <use xlink:href="#bbburst-shape-3" width="7.167734688751192" opacity="0.9293124930052457"
        transform="matrix(0.9542887641259665,0.298886190150926,-0.298886190150926,0.9542887641259665,515.7057050329078,49.01197972971892)"
        fill="hsl(206, 75%, 49%)"></use>
    <use xlink:href="#bbburst-shape-1" width="34.41867523901115" opacity="0.2921728452343445"
        transform="matrix(0.9621972799907663,-0.27235343650919996,0.27235343650919996,0.9621972799907663,56.08640477596468,251.68414030539128)"
        fill="hsl(162, 100%, 58%)"></use>
    <use xlink:href="#bbburst-shape-10" width="24.197805808749113" opacity="0.6331630140740423"
        transform="matrix(0.9604282513158654,0.27852751044438845,-0.27852751044438845,0.9604282513158654,345.27593959819177,70.55728915166588)"
        fill="none" stroke="hsl(162, 100%, 58%)"></use>
    <use xlink:href="#bbburst-shape-3" width="23.30262471730528" opacity="0.4019679589181733"
        transform="matrix(0.7253937708072261,-0.6883341319984602,0.6883341319984602,0.7253937708072261,207.88566499852408,-135.07263686263428)"
        fill="hsl(206, 75%, 49%)"></use>
    <use xlink:href="#bbburst-shape-5" width="28.844610999148045" opacity="0.19876886307852404"
        transform="matrix(0.8896523357017743,0.4566385020783699,-0.4566385020783699,0.8896523357017743,489.2316034333139,388.98460344858415)"
        fill="hsl(206, 75%, 49%)"></use>
    <use xlink:href="#bbburst-shape-13" width="32.41542628169305" opacity="0.08424850789446847"
        transform="matrix(0.8883759223802545,0.4591167831119136,-0.4591167831119136,0.8883759223802545,376.577616711637,-327.0644534704795)"
        fill="none" stroke="hsl(206, 75%, 49%)"></use>
    <use xlink:href="#bbburst-shape-11" width="23.58792980008244" opacity="0.5141099447760186"
        transform="matrix(0.8681296145337766,0.49633755889458586,-0.49633755889458586,0.8681296145337766,378.7040547693966,-15.142139684570907)"
        fill="none" stroke="hsl(162, 100%, 58%)"></use>
    <use xlink:href="#bbburst-shape-13" width="10.541935690305941" opacity="0.8671633688834348"
        transform="matrix(0.8775193495896645,0.4795412298183882,-0.4795412298183882,0.8775193495896645,630.6609330393733,87.49637103588009)"
        fill="none" stroke="hsl(162, 100%, 58%)"></use>
    <use xlink:href="#bbburst-shape-10" width="19.78128326506379" opacity="0.5271946008276448"
        transform="matrix(0.977243440989334,-0.2121208548052877,0.2121208548052877,0.977243440989334,263.75951174552904,219.83127799198888)"
        fill="none" stroke="hsl(162, 100%, 58%)"></use>
    <use xlink:href="#bbburst-shape-3" width="28.217749270403342" opacity="0.27129895406762594"
        transform="matrix(0.9192964321062627,0.3935658393670563,-0.3935658393670563,0.9192964321062627,398.75619489383655,320.50412851586793)"
        fill="hsl(162, 100%, 58%)"></use>
    <use xlink:href="#bbburst-shape-5" width="28.296399848367024" opacity="0.34907307292534695"
        transform="matrix(0.9962817151024034,-0.08615534894952055,0.08615534894952055,0.9962817151024034,63.5177483773207,-51.14454488409979)"
        fill="hsl(162, 100%, 58%)"></use>
    <use xlink:href="#bbburst-shape-13" width="21.499338324353758" opacity="0.6018167069979456"
        transform="matrix(0.9180765484131728,0.3964031423358742,-0.3964031423358742,0.9180765484131728,489.95481950999067,-140.7734594375079)"
        fill="none" stroke="hsl(206, 75%, 49%)"></use>
    <use xlink:href="#bbburst-shape-1" width="31.162385800984193" opacity="0.1189987254999465"
        transform="matrix(0.8821137989924598,-0.4710363527659943,0.4710363527659943,0.8821137989924598,437.17028398677803,-261.54614938745743)"
        fill="hsl(162, 100%, 58%)"></use>
    <use xlink:href="#bbburst-shape-3" width="8.701840702885404" opacity="0.8100184010711762"
        transform="matrix(0.999075245210791,0.0429959812889254,-0.0429959812889254,0.999075245210791,364.5683055018226,-70.39317465259285)"
        fill="hsl(162, 100%, 58%)"></use>
    <use xlink:href="#bbburst-shape-13" width="28.86296908364865" opacity="0.1722692873797329"
        transform="matrix(0.8938803432221921,-0.44830562343224745,0.44830562343224745,0.8938803432221921,-157.2439544076607,-25.242054585581457)"
        fill="none" stroke="hsl(162, 100%, 58%)"></use>
    <use xlink:href="#bbburst-shape-13" width="9.191887085126467" opacity="0.9209083758834518"
        transform="matrix(0.8107973644124044,-0.585326946126606,0.585326946126606,0.8107973644124044,128.34748191555693,67.20832709470159)"
        fill="none" stroke="hsl(162, 100%, 58%)"></use>
    <use xlink:href="#bbburst-shape-13" width="30.014285105902374" opacity="0.3267282617773457"
        transform="matrix(0.7577050572313218,0.6525971546414215,-0.6525971546414215,0.7577050572313218,565.9608442112615,-204.0548649177161)"
        fill="none" stroke="hsl(206, 75%, 49%)"></use>
    <use xlink:href="#bbburst-shape-11" width="14.2800885506491" opacity="0.8042921307400672"
        transform="matrix(0.7865944460817272,-0.6174699809653751,0.6174699809653751,0.7865944460817272,72.93591913971312,136.8355572290145)"
        fill="none" stroke="hsl(206, 75%, 49%)"></use>
    <use xlink:href="#bbburst-shape-10" width="8.972172159468228" opacity="0.913486473748086"
        transform="matrix(0.9342214934926902,0.3566934273242043,-0.3566934273242043,0.9342214934926902,516.2097198386394,56.638979713148046)"
        fill="none" stroke="hsl(162, 100%, 58%)"></use>
    <use xlink:href="#bbburst-shape-11" width="35.37176733159022" opacity="0.03772661391448262"
        transform="matrix(0.9989470156831577,-0.04587875170177363,0.04587875170177363,0.9989470156831577,604.2412105647628,361.01888002837063)"
        fill="none" stroke="hsl(162, 100%, 58%)"></use>
    <use xlink:href="#bbburst-shape-10" width="16.198865568634776" opacity="0.6217737445224119"
        transform="matrix(0.8190328086080382,-0.5737466848911884,0.5737466848911884,0.8190328086080382,189.6967587973868,-91.19662567911902)"
        fill="none" stroke="hsl(162, 100%, 58%)"></use>
    <use xlink:href="#bbburst-shape-10" width="29.691576384043636" opacity="0.34197221405453737"
        transform="matrix(0.9365255684546127,0.3505992864093773,-0.3505992864093773,0.9365255684546127,810.2631579055579,-63.887276846707664)"
        fill="none" stroke="hsl(162, 100%, 58%)"></use>
    <use xlink:href="#bbburst-shape-13" width="35.153707251754696" opacity="0.3586486489481395"
        transform="matrix(0.9993134798866539,0.03704819721425448,-0.03704819721425448,0.9993134798866539,632.004904934374,-168.26608513845161)"
        fill="none" stroke="hsl(206, 75%, 49%)"></use>
    <use xlink:href="#bbburst-shape-1" width="36.699108426739315" opacity="0.21447637370913908"
        transform="matrix(0.9862526904983998,0.16524415416185698,-0.16524415416185698,0.9862526904983998,635.4956521156222,302.17101036776495)"
        fill="hsl(206, 75%, 49%)"></use>
    <use xlink:href="#bbburst-shape-13" width="21.58533475790731" opacity="0.6101287556246163"
        transform="matrix(0.948769029771241,-0.3159704545474751,0.3159704545474751,0.948769029771241,362.3686919100103,168.74587021496217)"
        fill="none" stroke="hsl(206, 75%, 49%)"></use>
</svg>
